<?xml version="1.0" encoding="UTF-8"?>
<svg xmlns="http://www.w3.org/2000/svg" xmlns:xlink="http://www.w3.org/1999/xlink" width="22px" height="px" viewBox="0 0 22 21" version="1.1">
<g id="surface1">
<path style=" stroke:none;fill-rule:evenodd;fill:rgb(0%,0%,0%);fill-opacity:1;" d="M 3.488281 8.027344 C 2.445312 9.039062 1.296875 8.96875 0.00390625 7.296875 C 1.285156 6.457031 2.820312 6.375 3.488281 8.027344 Z M 13.121094 14.585938 L 13.503906 14.199219 L 12.386719 13.074219 C 12.296875 12.984375 12.273438 12.84375 12.332031 12.726562 C 12.824219 11.738281 13.15625 10.824219 13.328125 9.984375 C 13.503906 9.148438 13.527344 8.382812 13.414062 7.683594 C 13.207031 6.375 12.621094 5.339844 11.808594 4.578125 C 11.085938 3.894531 10.171875 3.425781 9.175781 3.171875 C 8.175781 2.910156 7.089844 2.871094 6.027344 3.042969 C 4.421875 3.304688 2.867188 4.054688 1.71875 5.296875 C 1.496094 5.539062 1.101562 5.285156 1.222656 4.980469 C 1.761719 3.59375 2.707031 2.457031 3.878906 1.621094 C 5.117188 0.738281 6.601562 0.191406 8.121094 0.0429688 C 8.886719 -0.03125 9.621094 -0.0078125 10.316406 0.101562 C 11.949219 0.367188 13.347656 1.113281 14.382812 2.210938 C 15.414062 3.3125 16.078125 4.757812 16.238281 6.414062 C 16.304688 7.101562 16.285156 7.828125 16.164062 8.578125 C 16.066406 9.1875 15.90625 9.808594 15.679688 10.425781 C 15.484375 10.957031 15.238281 11.488281 14.941406 12.011719 L 15.308594 12.382812 L 15.632812 12.058594 C 15.722656 11.96875 15.835938 11.925781 15.953125 11.925781 C 16.066406 11.925781 16.179688 11.96875 16.265625 12.054688 L 17.660156 13.460938 L 14.515625 16.632812 L 13.121094 15.230469 C 13.039062 15.144531 12.992188 15.027344 12.988281 14.910156 C 12.988281 14.792969 13.035156 14.675781 13.121094 14.585938 Z M 18.226562 14.03125 L 21.347656 17.171875 L 21.371094 17.199219 C 21.789062 17.632812 21.996094 18.195312 21.996094 18.757812 C 21.996094 19.332031 21.78125 19.90625 21.347656 20.34375 C 20.914062 20.78125 20.34375 21 19.773438 21 C 19.203125 21 18.632812 20.78125 18.199219 20.34375 L 15.078125 17.199219 Z M 13.929688 13.773438 L 14.886719 12.8125 L 14.355469 12.273438 C 14.261719 12.175781 14.242188 12.023438 14.3125 11.90625 C 14.640625 11.351562 14.910156 10.785156 15.117188 10.21875 C 15.332031 9.636719 15.484375 9.054688 15.574219 8.484375 C 15.683594 7.785156 15.707031 7.109375 15.644531 6.46875 C 15.496094 4.953125 14.890625 3.632812 13.949219 2.628906 C 13.003906 1.625 11.71875 0.9375 10.222656 0.699219 C 9.578125 0.59375 8.890625 0.574219 8.175781 0.644531 C 6.761719 0.78125 5.378906 1.289062 4.226562 2.113281 C 3.570312 2.578125 2.996094 3.144531 2.53125 3.804688 C 3.554688 3.09375 4.730469 2.644531 5.933594 2.449219 C 7.078125 2.261719 8.246094 2.308594 9.324219 2.585938 C 10.414062 2.863281 11.414062 3.382812 12.21875 4.136719 C 13.121094 4.988281 13.773438 6.136719 14.003906 7.585938 C 14.128906 8.363281 14.105469 9.199219 13.914062 10.105469 C 13.742188 10.945312 13.425781 11.839844 12.960938 12.800781 Z M 7.527344 9.265625 C 7.351562 10.632812 6.933594 11.199219 4.796875 11.074219 C 5.449219 9.773438 5.761719 8.652344 7.527344 9.265625 Z M 2.710938 10.46875 C 3.253906 9.382812 3.558594 8.191406 5.257812 8.785156 C 5.046875 10.421875 4.234375 10.558594 2.710938 10.46875 Z M 8.238281 5.957031 C 8.316406 7.421875 8.078125 8.890625 10.246094 9.070312 C 10.800781 7.152344 9.972656 6.601562 8.238281 5.957031 Z M 5.902344 5.765625 C 5.972656 7.070312 5.757812 8.375 7.683594 8.53125 C 8.175781 6.832031 7.4375 6.34375 5.902344 5.765625 Z M 5.410156 8.050781 C 5.765625 6.820312 5.621094 6.179688 3.75 5.480469 C 3.820312 6.835938 3.671875 7.910156 5.410156 8.050781 Z M 10.089844 9.8125 C 9.890625 11.351562 9.421875 11.992188 7.011719 11.851562 C 7.742188 10.382812 8.097656 9.117188 10.089844 9.8125 Z M 11.089844 9.257812 C 10.890625 9.214844 10.695312 9.34375 10.652344 9.542969 C 10.609375 9.746094 10.738281 9.941406 10.9375 9.984375 L 11.855469 10.179688 L 12.007812 9.449219 Z M 11.089844 9.257812 "/>
</g>
</svg>
