<?xml version="1.0" encoding="UTF-8"?>
<svg xmlns="http://www.w3.org/2000/svg" xmlns:xlink="http://www.w3.org/1999/xlink" width="25px" height="25px" viewBox="0 0 25 28" version="1.1">
<defs>
<clipPath id="clip1">
  <path d="M 0 0 L 24.609375 0 L 24.609375 28 L 0 28 Z M 0 0 "/>
</clipPath>
</defs>
<g id="surface1">
<g clip-path="url(#clip1)" clip-rule="nonzero">
<path style=" stroke:none;fill-rule:nonzero;fill:rgb(0%,0%,0%);fill-opacity:1;" d="M 12.304688 14 C 16.1875 14 19.335938 10.867188 19.335938 7 C 19.335938 3.132812 16.1875 0 12.304688 0 C 8.421875 0 5.273438 3.132812 5.273438 7 C 5.273438 10.867188 8.421875 14 12.304688 14 Z M 9.792969 16.625 C 4.382812 16.625 0 20.988281 0 26.375 C 0 27.273438 0.730469 28 1.632812 28 L 22.976562 28 C 23.878906 28 24.609375 27.273438 24.609375 26.375 C 24.609375 20.988281 20.226562 16.625 14.816406 16.625 Z M 9.792969 16.625 "/>
</g>
</g>
</svg>
