<?xml version="1.0" encoding="UTF-8"?>
<svg xmlns="http://www.w3.org/2000/svg" xmlns:xlink="http://www.w3.org/1999/xlink" width="22px" height="px" viewBox="0 0 22 27" version="1.1">
<g id="surface1">
<path style=" stroke:none;fill-rule:nonzero;fill:rgb(0%,0%,0%);fill-opacity:1;" d="M 10.894531 26.589844 C 8.011719 26.589844 5.476562 25.609375 3.285156 23.648438 C 1.09375 21.6875 0 19.035156 0 15.6875 C 0 13.472656 0.902344 11.0625 2.707031 8.460938 C 4.511719 5.855469 7.242188 3.035156 10.894531 0 C 14.550781 3.035156 17.28125 5.855469 19.085938 8.460938 C 20.886719 11.0625 21.789062 13.472656 21.789062 15.6875 C 21.789062 19.035156 20.695312 21.6875 18.503906 23.648438 C 16.3125 25.609375 13.777344 26.589844 10.894531 26.589844 Z M 10.894531 23.933594 C 13.1875 23.933594 15.121094 23.167969 16.699219 21.636719 C 18.277344 20.109375 19.066406 18.125 19.066406 15.6875 C 19.066406 14.117188 18.398438 12.316406 17.058594 10.285156 C 15.71875 8.257812 13.664062 6.003906 10.894531 3.523438 C 8.125 6.003906 6.070312 8.257812 4.734375 10.285156 C 3.394531 12.316406 2.722656 14.117188 2.722656 15.6875 C 2.722656 18.125 3.511719 20.109375 5.089844 21.636719 C 6.667969 23.167969 8.601562 23.933594 10.894531 23.933594 Z M 11.269531 22.601562 C 11.542969 22.582031 11.773438 22.476562 11.96875 22.289062 C 12.160156 22.097656 12.257812 21.871094 12.257812 21.605469 C 12.257812 21.292969 12.15625 21.046875 11.949219 20.859375 C 11.746094 20.667969 11.484375 20.585938 11.167969 20.609375 C 10.238281 20.675781 9.25 20.425781 8.207031 19.859375 C 7.160156 19.296875 6.503906 18.269531 6.230469 16.785156 C 6.183594 16.542969 6.066406 16.34375 5.871094 16.1875 C 5.679688 16.03125 5.457031 15.953125 5.210938 15.953125 C 4.890625 15.953125 4.628906 16.070312 4.425781 16.304688 C 4.222656 16.535156 4.152344 16.808594 4.222656 17.117188 C 4.609375 19.132812 5.515625 20.574219 6.945312 21.4375 C 8.375 22.304688 9.816406 22.691406 11.269531 22.601562 Z M 11.269531 22.601562 "/>
</g>
</svg>
