<?xml version="1.0" encoding="UTF-8"?>
<svg xmlns="http://www.w3.org/2000/svg" xmlns:xlink="http://www.w3.org/1999/xlink" width="22px" height="px" viewBox="0 0 21 9" version="1.1">
<g id="surface1">
<path style=" stroke:none;fill-rule:nonzero;fill:rgb(0%,0%,0%);fill-opacity:1;" d="M 0.496094 4.5 C 0.496094 4.34375 0.519531 4.199219 0.570312 4.0625 C 0.617188 3.925781 0.699219 3.800781 0.816406 3.683594 L 3.878906 0.621094 C 4.09375 0.40625 4.355469 0.300781 4.667969 0.300781 C 4.976562 0.300781 5.25 0.417969 5.484375 0.648438 C 5.695312 0.863281 5.804688 1.136719 5.804688 1.464844 C 5.804688 1.796875 5.695312 2.070312 5.484375 2.285156 L 4.433594 3.332031 L 16.566406 3.332031 L 15.488281 2.253906 C 15.273438 2.039062 15.167969 1.777344 15.167969 1.464844 C 15.167969 1.15625 15.285156 0.882812 15.515625 0.648438 C 15.730469 0.4375 16.003906 0.328125 16.332031 0.328125 C 16.664062 0.328125 16.9375 0.4375 17.148438 0.648438 L 20.183594 3.683594 C 20.300781 3.800781 20.382812 3.925781 20.433594 4.0625 C 20.480469 4.199219 20.503906 4.34375 20.503906 4.5 C 20.503906 4.65625 20.480469 4.800781 20.433594 4.9375 C 20.382812 5.074219 20.300781 5.199219 20.183594 5.316406 L 17.121094 8.378906 C 16.90625 8.59375 16.644531 8.699219 16.332031 8.699219 C 16.023438 8.699219 15.75 8.582031 15.515625 8.351562 C 15.304688 8.136719 15.195312 7.863281 15.195312 7.535156 C 15.195312 7.203125 15.304688 6.929688 15.515625 6.714844 L 16.566406 5.667969 L 4.433594 5.667969 L 5.511719 6.746094 C 5.726562 6.960938 5.832031 7.222656 5.832031 7.535156 C 5.832031 7.84375 5.714844 8.117188 5.484375 8.351562 C 5.269531 8.5625 4.996094 8.671875 4.667969 8.671875 C 4.335938 8.671875 4.0625 8.5625 3.851562 8.351562 L 0.816406 5.316406 C 0.699219 5.199219 0.617188 5.074219 0.570312 4.9375 C 0.519531 4.800781 0.496094 4.65625 0.496094 4.5 Z M 0.496094 4.5 "/>
</g>
</svg>
