<svg width="32" height="40" viewBox="0 0 32 40" fill="none" xmlns="http://www.w3.org/2000/svg">
<path d="M19.3541 0.833344H12.6458C11.585 0.833376 10.5615 1.22436 9.77087 1.93154C8.98024 2.63872 8.47799 3.61249 8.36013 4.66668H4.97913C3.83538 4.66668 2.73848 5.12103 1.92973 5.92978C1.12098 6.73853 0.666626 7.83543 0.666626 8.97918V34.8542C0.666626 35.9979 1.12098 37.0948 1.92973 37.9036C2.73848 38.7123 3.83538 39.1667 4.97913 39.1667H27.0208C27.5871 39.1667 28.1479 39.0551 28.6711 38.8384C29.1943 38.6217 29.6697 38.304 30.0702 37.9036C30.4706 37.5031 30.7883 37.0277 31.005 36.5045C31.2217 35.9813 31.3333 35.4205 31.3333 34.8542V8.97918C31.3333 8.41285 31.2217 7.85207 31.005 7.32885C30.7883 6.80564 30.4706 6.33023 30.0702 5.92978C29.6697 5.52933 29.1943 5.21167 28.6711 4.99495C28.1479 4.77822 27.5871 4.66668 27.0208 4.66668H23.6398C23.5219 3.61249 23.0197 2.63872 22.229 1.93154C21.4384 1.22436 20.4149 0.833376 19.3541 0.833344ZM12.6458 3.70834H19.3541C19.7354 3.70834 20.101 3.85979 20.3706 4.12938C20.6402 4.39896 20.7916 4.76459 20.7916 5.14584C20.7916 5.52709 20.6402 5.89273 20.3706 6.16231C20.101 6.43189 19.7354 6.58334 19.3541 6.58334H12.6458C12.2645 6.58334 11.8989 6.43189 11.6293 6.16231C11.3597 5.89273 11.2083 5.52709 11.2083 5.14584C11.2083 4.76459 11.3597 4.39896 11.6293 4.12938C11.8989 3.85979 12.2645 3.70834 12.6458 3.70834ZM16.9583 16.6458C16.9583 16.2646 17.1097 15.899 17.3793 15.6294C17.6489 15.3598 18.0145 15.2083 18.3958 15.2083H25.1041C25.4854 15.2083 25.851 15.3598 26.1206 15.6294C26.3902 15.899 26.5416 16.2646 26.5416 16.6458C26.5416 17.0271 26.3902 17.3927 26.1206 17.6623C25.851 17.9319 25.4854 18.0833 25.1041 18.0833H18.3958C18.0145 18.0833 17.6489 17.9319 17.3793 17.6623C17.1097 17.3927 16.9583 17.0271 16.9583 16.6458ZM18.3958 25.75H25.1041C25.4854 25.75 25.851 25.9015 26.1206 26.171C26.3902 26.4406 26.5416 26.8063 26.5416 27.1875C26.5416 27.5688 26.3902 27.9344 26.1206 28.204C25.851 28.4736 25.4854 28.625 25.1041 28.625H18.3958C18.0145 28.625 17.6489 28.4736 17.3793 28.204C17.1097 27.9344 16.9583 27.5688 16.9583 27.1875C16.9583 26.8063 17.1097 26.4406 17.3793 26.171C17.6489 25.9015 18.0145 25.75 18.3958 25.75ZM13.6616 15.745L9.82829 19.5783C9.55876 19.8475 9.1934 19.9987 8.81246 19.9987C8.43152 19.9987 8.06616 19.8475 7.79663 19.5783L5.87996 17.6617C5.73873 17.5301 5.62545 17.3714 5.54688 17.195C5.46831 17.0187 5.42606 16.8284 5.42266 16.6353C5.41925 16.4423 5.45476 16.2506 5.52706 16.0716C5.59936 15.8926 5.70697 15.73 5.84347 15.5935C5.97997 15.457 6.14257 15.3494 6.32156 15.2771C6.50056 15.2048 6.69228 15.1693 6.88529 15.1727C7.07831 15.1761 7.26866 15.2184 7.44499 15.2969C7.62132 15.3755 7.78002 15.4888 7.91163 15.63L8.81246 16.5308L11.63 13.7133C11.7616 13.5721 11.9203 13.4588 12.0966 13.3803C12.2729 13.3017 12.4633 13.2594 12.6563 13.256C12.8493 13.2526 13.041 13.2881 13.22 13.3604C13.399 13.4327 13.5616 13.5404 13.6981 13.6769C13.8346 13.8134 13.9422 13.976 14.0145 14.1549C14.0868 14.3339 14.1223 14.5257 14.1189 14.7187C14.1155 14.9117 14.0733 15.102 13.9947 15.2784C13.9161 15.4547 13.8029 15.6134 13.6616 15.745ZM13.6616 24.255C13.9308 24.5245 14.082 24.8899 14.082 25.2708C14.082 25.6518 13.9308 26.0171 13.6616 26.2867L9.82829 30.12C9.55876 30.3892 9.1934 30.5404 8.81246 30.5404C8.43152 30.5404 8.06616 30.3892 7.79663 30.12L5.87996 28.2033C5.73873 28.0717 5.62545 27.913 5.54688 27.7367C5.46831 27.5604 5.42606 27.37 5.42266 27.177C5.41925 26.984 5.45476 26.7923 5.52706 26.6133C5.59936 26.4343 5.70697 26.2717 5.84347 26.1352C5.97997 25.9987 6.14257 25.8911 6.32156 25.8188C6.50056 25.7465 6.69228 25.711 6.88529 25.7144C7.07831 25.7178 7.26866 25.76 7.44499 25.8386C7.62132 25.9172 7.78002 26.0304 7.91163 26.1717L8.81246 27.0725L11.63 24.255C11.8995 23.9858 12.2649 23.8346 12.6458 23.8346C13.0267 23.8346 13.3921 23.9858 13.6616 24.255Z" fill="black"/>
</svg>
