<?xml version="1.0" encoding="UTF-8"?>
<svg xmlns="http://www.w3.org/2000/svg" xmlns:xlink="http://www.w3.org/1999/xlink" width="25px" height="25px" viewBox="0 0 25 31" version="1.1">
<g id="surface1">
<path style=" stroke:none;fill-rule:nonzero;fill:rgb(0%,0%,0%);fill-opacity:1;" d="M 15.121094 0.644531 L 9.878906 0.644531 C 9.050781 0.644531 8.25 0.949219 7.632812 1.496094 C 7.015625 2.046875 6.625 2.800781 6.53125 3.617188 L 3.890625 3.617188 C 2.996094 3.617188 2.140625 3.96875 1.507812 4.59375 C 0.875 5.222656 0.519531 6.074219 0.519531 6.957031 L 0.519531 27.011719 C 0.519531 27.898438 0.875 28.75 1.507812 29.375 C 2.140625 30.003906 2.996094 30.355469 3.890625 30.355469 L 21.109375 30.355469 C 21.550781 30.355469 21.992188 30.269531 22.398438 30.101562 C 22.808594 29.933594 23.179688 29.6875 23.492188 29.375 C 23.804688 29.066406 24.054688 28.695312 24.222656 28.289062 C 24.390625 27.886719 24.480469 27.449219 24.480469 27.011719 L 24.480469 6.957031 C 24.480469 6.519531 24.390625 6.085938 24.222656 5.679688 C 24.054688 5.273438 23.804688 4.90625 23.492188 4.59375 C 23.179688 4.285156 22.808594 4.039062 22.398438 3.871094 C 21.992188 3.703125 21.550781 3.617188 21.109375 3.617188 L 18.46875 3.617188 C 18.375 2.800781 17.984375 2.046875 17.367188 1.496094 C 16.75 0.949219 15.949219 0.644531 15.121094 0.644531 Z M 9.878906 2.875 L 15.121094 2.875 C 15.417969 2.875 15.703125 2.992188 15.914062 3.199219 C 16.125 3.410156 16.242188 3.691406 16.242188 3.988281 C 16.242188 4.285156 16.125 4.566406 15.914062 4.777344 C 15.703125 4.984375 15.417969 5.101562 15.121094 5.101562 L 9.878906 5.101562 C 9.582031 5.101562 9.296875 4.984375 9.085938 4.777344 C 8.875 4.566406 8.757812 4.285156 8.757812 3.988281 C 8.757812 3.691406 8.875 3.410156 9.085938 3.199219 C 9.296875 2.992188 9.582031 2.875 9.878906 2.875 Z M 13.25 12.902344 C 13.25 12.605469 13.367188 12.320312 13.578125 12.113281 C 13.789062 11.902344 14.074219 11.785156 14.371094 11.785156 L 19.613281 11.785156 C 19.910156 11.785156 20.195312 11.902344 20.40625 12.113281 C 20.617188 12.320312 20.734375 12.605469 20.734375 12.902344 C 20.734375 13.195312 20.617188 13.480469 20.40625 13.6875 C 20.195312 13.898438 19.910156 14.015625 19.613281 14.015625 L 14.371094 14.015625 C 14.074219 14.015625 13.789062 13.898438 13.578125 13.6875 C 13.367188 13.480469 13.25 13.195312 13.25 12.902344 Z M 14.371094 19.957031 L 19.613281 19.957031 C 19.910156 19.957031 20.195312 20.074219 20.40625 20.28125 C 20.617188 20.492188 20.734375 20.773438 20.734375 21.070312 C 20.734375 21.367188 20.617188 21.648438 20.40625 21.859375 C 20.195312 22.066406 19.910156 22.183594 19.613281 22.183594 L 14.371094 22.183594 C 14.074219 22.183594 13.789062 22.066406 13.578125 21.859375 C 13.367188 21.648438 13.25 21.367188 13.25 21.070312 C 13.25 20.773438 13.367188 20.492188 13.578125 20.28125 C 13.789062 20.074219 14.074219 19.957031 14.371094 19.957031 Z M 10.671875 12.203125 L 7.679688 15.171875 C 7.46875 15.382812 7.183594 15.5 6.882812 15.5 C 6.585938 15.5 6.300781 15.382812 6.089844 15.171875 L 4.59375 13.6875 C 4.484375 13.585938 4.394531 13.460938 4.332031 13.324219 C 4.273438 13.191406 4.238281 13.042969 4.238281 12.890625 C 4.234375 12.742188 4.261719 12.59375 4.316406 12.457031 C 4.375 12.316406 4.457031 12.191406 4.566406 12.085938 C 4.671875 11.980469 4.800781 11.894531 4.9375 11.839844 C 5.078125 11.785156 5.226562 11.757812 5.378906 11.757812 C 5.53125 11.761719 5.679688 11.792969 5.816406 11.855469 C 5.953125 11.914062 6.078125 12.003906 6.179688 12.113281 L 6.882812 12.8125 L 9.085938 10.628906 C 9.1875 10.519531 9.3125 10.429688 9.449219 10.371094 C 9.589844 10.308594 9.738281 10.277344 9.886719 10.273438 C 10.039062 10.269531 10.1875 10.296875 10.328125 10.355469 C 10.46875 10.410156 10.59375 10.492188 10.703125 10.597656 C 10.808594 10.707031 10.890625 10.832031 10.949219 10.96875 C 11.003906 11.109375 11.03125 11.257812 11.03125 11.40625 C 11.027344 11.554688 10.996094 11.703125 10.933594 11.839844 C 10.871094 11.976562 10.785156 12.101562 10.671875 12.203125 Z M 10.671875 18.796875 C 10.882812 19.007812 11 19.289062 11 19.585938 C 11 19.878906 10.882812 20.164062 10.671875 20.371094 L 7.679688 23.34375 C 7.46875 23.550781 7.183594 23.667969 6.882812 23.667969 C 6.585938 23.667969 6.300781 23.550781 6.089844 23.34375 L 4.59375 21.859375 C 4.484375 21.753906 4.394531 21.632812 4.332031 21.496094 C 4.273438 21.359375 4.238281 21.210938 4.238281 21.0625 C 4.234375 20.914062 4.261719 20.765625 4.316406 20.625 C 4.375 20.488281 4.457031 20.359375 4.566406 20.253906 C 4.671875 20.148438 4.800781 20.066406 4.9375 20.007812 C 5.078125 19.953125 5.226562 19.925781 5.378906 19.929688 C 5.53125 19.929688 5.679688 19.964844 5.816406 20.023438 C 5.953125 20.085938 6.078125 20.171875 6.179688 20.28125 L 6.882812 20.980469 L 9.085938 18.796875 C 9.296875 18.589844 9.582031 18.472656 9.878906 18.472656 C 10.175781 18.472656 10.460938 18.589844 10.671875 18.796875 Z M 10.671875 18.796875 "/>
</g>
</svg>
