<?xml version="1.0" encoding="UTF-8"?>
<svg xmlns="http://www.w3.org/2000/svg" xmlns:xlink="http://www.w3.org/1999/xlink" width="22px" height="px" viewBox="0 0 22 22" version="1.1">
<g id="surface1">
<path style=" stroke:none;fill-rule:nonzero;fill:rgb(0%,0%,0%);fill-opacity:1;" d="M 20.578125 14.359375 C 20.042969 14.359375 19.605469 15.75 19.605469 16.289062 C 19.605469 16.824219 20.042969 17.257812 20.578125 17.257812 C 21.113281 17.257812 21.550781 16.824219 21.550781 16.289062 C 21.550781 15.75 21.113281 14.359375 20.578125 14.359375 Z M 20.578125 14.359375 "/>
<path style=" stroke:none;fill-rule:nonzero;fill:rgb(0%,0%,0%);fill-opacity:1;" d="M 18.863281 18.945312 C 18.324219 18.945312 17.890625 20.335938 17.890625 20.871094 C 17.890625 21.410156 18.324219 21.84375 18.863281 21.84375 C 19.398438 21.84375 19.835938 21.410156 19.835938 20.871094 C 19.835938 20.335938 19.398438 18.945312 18.863281 18.945312 Z M 18.863281 18.945312 "/>
<path style=" stroke:none;fill-rule:nonzero;fill:rgb(0%,0%,0%);fill-opacity:1;" d="M 17.523438 11.546875 C 17.988281 12.460938 18.890625 13.085938 19.921875 13.175781 C 20.09375 13.191406 20.261719 13.125 20.378906 13.003906 C 20.496094 12.878906 20.550781 12.707031 20.527344 12.539062 L 19.839844 7.84375 C 19.8125 7.675781 19.714844 7.527344 19.566406 7.441406 C 19.417969 7.355469 19.238281 7.34375 19.078125 7.40625 C 18.117188 7.789062 17.429688 8.648438 17.246094 9.652344 L 11.90625 10.4375 L 14.539062 7.097656 C 14.921875 6.613281 14.863281 5.914062 14.40625 5.496094 L 9.964844 1.445312 C 9.507812 1.03125 8.804688 1.039062 8.359375 1.464844 L 8.261719 1.554688 C 8.148438 1.425781 8.03125 1.304688 7.902344 1.1875 C 7.0625 0.421875 5.972656 0 4.839844 0 C 3.5625 0 2.335938 0.539062 1.476562 1.484375 C -0.183594 3.304688 -0.078125 6.117188 1.683594 7.820312 C 1.472656 8.039062 1.351562 8.332031 1.355469 8.640625 C 1.359375 8.96875 1.5 9.277344 1.742188 9.496094 L 7.148438 14.429688 C 7.390625 14.648438 7.714844 14.757812 8.039062 14.730469 C 8.363281 14.707031 8.664062 14.542969 8.867188 14.289062 L 10.183594 12.621094 Z M 2.539062 2.449219 C 3.125 1.804688 3.964844 1.433594 4.839844 1.433594 C 5.617188 1.433594 6.359375 1.722656 6.9375 2.246094 C 7.039062 2.339844 7.132812 2.441406 7.21875 2.546875 L 2.71875 6.828125 C 1.472656 5.667969 1.386719 3.710938 2.539062 2.449219 Z M 2.539062 2.449219 "/>
</g>
</svg>
