<?xml version="1.0" encoding="UTF-8"?>
<svg xmlns="http://www.w3.org/2000/svg" xmlns:xlink="http://www.w3.org/1999/xlink" width="25px" height="25px" viewBox="0 0 25 25" version="1.1">
<g id="surface1">
<path style=" stroke:none;fill-rule:nonzero;fill:rgb(0%,0%,0%);fill-opacity:1;" d="M 11.085938 0 C 12.539062 0 13.976562 0.28125 15.316406 0.832031 L 15.347656 0.847656 C 17.871094 1.894531 19.914062 3.828125 21.085938 6.277344 C 22.257812 8.726562 22.476562 11.519531 21.695312 14.117188 C 21.429688 15.003906 21.050781 15.851562 20.570312 16.640625 L 24.859375 21.277344 C 24.957031 21.378906 25.003906 21.515625 25 21.652344 C 24.992188 21.792969 24.933594 21.925781 24.832031 22.019531 L 21.679688 24.867188 C 21.578125 24.960938 21.441406 25.007812 21.300781 25 C 21.164062 24.992188 21.035156 24.929688 20.941406 24.828125 L 16.835938 20.351562 C 16.039062 20.835938 15.183594 21.21875 14.289062 21.492188 C 13.777344 21.644531 13.257812 21.761719 12.726562 21.839844 C 12.703125 21.554688 12.632812 21.273438 12.523438 21.003906 C 12.507812 20.957031 12.488281 20.910156 12.46875 20.859375 C 12.316406 20.523438 12.136719 20.199219 11.9375 19.886719 L 11.882812 19.808594 L 11.894531 19.703125 C 12.773438 19.625 13.636719 19.414062 14.449219 19.082031 C 15.523438 18.636719 16.5 17.988281 17.324219 17.175781 L 17.351562 17.148438 C 18.164062 16.339844 18.804688 15.382812 19.246094 14.328125 L 19.246094 14.304688 C 20.132812 12.160156 20.125 9.757812 19.230469 7.617188 C 18.332031 5.476562 16.617188 3.773438 14.460938 2.882812 L 14.433594 2.871094 C 12.820312 2.214844 11.050781 2.046875 9.339844 2.386719 C 7.632812 2.726562 6.0625 3.5625 4.832031 4.785156 L 4.804688 4.8125 C 3.996094 5.621094 3.351562 6.578125 2.910156 7.628906 L 2.910156 7.65625 C 2.703125 8.152344 2.546875 8.664062 2.4375 9.191406 C 1.859375 9.035156 1.308594 8.871094 0.820312 8.6875 C 0.671875 8.613281 0.507812 8.566406 0.34375 8.546875 L 0.277344 8.546875 C 0.417969 7.945312 0.605469 7.355469 0.84375 6.785156 L 0.859375 6.757812 C 1.699219 4.753906 3.121094 3.046875 4.941406 1.84375 C 6.761719 0.640625 8.898438 0 11.085938 0 Z M 10.304688 20.175781 C 10.46875 20.234375 11.554688 21.890625 11.1875 22.121094 C 11.152344 22.144531 9.816406 20.683594 9.660156 20.542969 L 9.507812 20.570312 C 3.410156 21.558594 -0.910156 18.710938 0.164062 10.003906 C 4.773438 11.761719 11.40625 11.335938 10.441406 19.519531 C 10.429688 19.742188 10.382812 19.964844 10.304688 20.175781 Z M 8.726562 18.808594 C 7.316406 15.507812 3.441406 14.261719 1.578125 11.972656 C 3.542969 16.113281 4.699219 15.972656 8.726562 18.808594 Z M 8.726562 18.808594 "/>
</g>
</svg>
