<svg width="35" height="35" viewBox="0 0 35 35" fill="none" xmlns="http://www.w3.org/2000/svg">
<path d="M15.5201 1.0566e-06C17.5526 0.000200021 19.5652 0.396151 21.4438 1.16537L21.484 1.18532C25.0168 2.64968 27.8789 5.35708 29.5199 8.78694C31.1609 12.2168 31.465 16.127 30.3737 19.7657C30.0027 21.0051 29.4734 22.1925 28.7987 23.2988L34.8056 29.7867C34.9378 29.9309 35.0074 30.1209 34.9994 30.3155C34.9913 30.5102 34.9062 30.6938 34.7625 30.8267L30.3536 34.8158C30.208 34.9433 30.0177 35.0091 29.8236 34.999C29.6296 34.9889 29.4473 34.9036 29.316 34.7616L23.5677 28.4932C22.4526 29.1723 21.2551 29.7084 20.0038 30.0888C19.2887 30.3041 18.5586 30.4669 17.8195 30.576C17.7841 30.1744 17.6872 29.7804 17.532 29.4078C17.5091 29.3394 17.4861 29.2739 17.4573 29.2055C17.2431 28.7335 16.9933 28.2782 16.71 27.8435L16.6353 27.7324L16.6526 27.5842C17.8827 27.473 19.0889 27.1791 20.2309 26.7123C21.7348 26.0921 23.1018 25.1861 24.2547 24.0454L24.2949 24.0083C25.4286 22.8762 26.3287 21.5357 26.9449 20.062V20.0278C28.1844 17.0252 28.1757 13.6584 26.9205 10.6621C25.6654 7.66589 23.2657 5.28342 20.2452 4.03463L20.2079 4.01754C17.9505 3.09897 15.4694 2.86341 13.0772 3.34055C10.685 3.8177 8.48887 4.98618 6.7655 6.69874L6.72527 6.73578C5.5919 7.86819 4.69183 9.20858 4.07531 10.6821V10.7191C3.7869 11.4132 3.56463 12.1324 3.41138 12.8675C2.60087 12.6481 1.83348 12.4173 1.14943 12.1637C0.939365 12.0603 0.712775 11.9937 0.479754 11.9671H0.390656C0.583234 11.1236 0.848633 10.2981 1.18392 9.49962L1.20116 9.45973C2.37895 6.65745 4.36734 4.26364 6.91561 2.58015C9.46387 0.896663 12.4579 -0.00112427 15.5201 1.0566e-06ZM14.428 28.2481C14.6579 28.3279 16.1783 30.6472 15.6639 30.9721C15.615 31.0034 13.741 28.9547 13.5255 28.761L13.3128 28.798C4.77372 30.1828 -1.27347 26.1938 0.229704 14.0044C6.68503 16.469 15.9685 15.8678 14.6177 27.3249C14.6015 27.6403 14.5375 27.9515 14.428 28.2481ZM12.2149 26.3334C10.2403 21.7118 4.81684 19.9652 2.20711 16.7597C4.96054 22.5609 6.57868 22.3643 12.2149 26.3334Z" fill="black"/>
</svg>
