<?xml version="1.0" encoding="UTF-8"?>
<svg xmlns="http://www.w3.org/2000/svg" xmlns:xlink="http://www.w3.org/1999/xlink" width="22px" height="px" viewBox="0 0 22 42" version="1.1">
<g id="surface1">
<path style=" stroke:none;fill-rule:nonzero;fill:rgb(0%,0%,0%);fill-opacity:1;" d="M 11 41.914062 C 8.042969 41.914062 5.519531 40.894531 3.433594 38.855469 C 1.347656 36.816406 0.304688 34.351562 0.304688 31.457031 C 0.304688 29.785156 0.679688 28.222656 1.429688 26.777344 C 2.175781 25.332031 3.230469 24.101562 4.582031 23.089844 L 4.582031 6.359375 C 4.582031 4.617188 5.207031 3.136719 6.453125 1.914062 C 7.703125 0.695312 9.21875 0.0859375 11 0.0859375 C 12.78125 0.0859375 14.296875 0.695312 15.546875 1.914062 C 16.792969 3.136719 17.417969 4.617188 17.417969 6.359375 L 17.417969 23.089844 C 18.769531 24.101562 19.824219 25.332031 20.570312 26.777344 C 21.320312 28.222656 21.695312 29.785156 21.695312 31.457031 C 21.695312 34.351562 20.652344 36.816406 18.566406 38.855469 C 16.480469 40.894531 13.957031 41.914062 11 41.914062 Z M 8.859375 18.910156 L 13.140625 18.910156 L 13.140625 16.816406 L 11 16.816406 L 11 14.726562 L 13.140625 14.726562 L 13.140625 10.542969 L 11 10.542969 L 11 8.453125 L 13.140625 8.453125 L 13.140625 6.359375 C 13.140625 5.765625 12.933594 5.269531 12.523438 4.867188 C 12.113281 4.46875 11.605469 4.269531 11 4.269531 C 10.394531 4.269531 9.886719 4.46875 9.476562 4.867188 C 9.066406 5.269531 8.859375 5.765625 8.859375 6.359375 Z M 8.859375 18.910156 "/>
</g>
</svg>
