<?xml version="1.0" encoding="UTF-8"?>
<svg xmlns="http://www.w3.org/2000/svg" xmlns:xlink="http://www.w3.org/1999/xlink" width="22px" height="px" viewBox="0 0 22 13" version="1.1">
<g id="surface1">
<path style=" stroke:none;fill-rule:nonzero;fill:rgb(0%,0%,0%);fill-opacity:1;" d="M 21.519531 3.140625 C 20.5625 2.003906 18.859375 2.035156 17.589844 2.515625 L 9.628906 5.457031 C 7.289062 4.183594 4.996094 4.535156 4.988281 3.917969 C 4.984375 3.4375 5.429688 3.542969 5.347656 2.292969 C 5.273438 1.089844 4 0.191406 2.804688 0.265625 C 1.609375 0.253906 0.382812 1.15625 0.382812 2.414062 C 0.308594 3.675781 1.390625 4.855469 2.65625 4.941406 C 4.140625 5.167969 6.757812 4.289062 8.011719 6.488281 C 7.113281 8.164062 5.484375 8.160156 4.011719 8.070312 C 2.789062 7.996094 1.328125 8.335938 0.757812 9.527344 C 0.207031 10.667969 0.777344 12.296875 2.074219 12.652344 C 3.382812 13.136719 5.167969 12.542969 5.460938 11.054688 C 5.6875 9.90625 4.863281 9.363281 5.175781 8.945312 C 5.40625 8.632812 6.917969 8.820312 9.585938 7.636719 L 18.277344 10.707031 C 19.375 11.015625 20.710938 11.011719 21.667969 9.949219 L 12.65625 6.535156 Z M 3.675781 1.21875 C 4.941406 1.925781 4.859375 3.820312 3.554688 4.183594 C 2.375 4.585938 0.847656 3.4375 1.210938 2.164062 C 1.421875 1.117188 2.808594 0.738281 3.675781 1.21875 Z M 3.8125 8.976562 C 5.132812 9.464844 4.933594 11.675781 3.601562 11.964844 C 2.714844 12.265625 1.445312 11.820312 1.34375 10.78125 C 1.15625 9.519531 2.636719 8.386719 3.8125 8.976562 Z M 3.8125 8.976562 "/>
</g>
</svg>
