<?xml version="1.0" encoding="UTF-8"?>
<svg xmlns="http://www.w3.org/2000/svg" xmlns:xlink="http://www.w3.org/1999/xlink" width="22px" height="px" viewBox="0 0 22 51" version="1.1">
<g id="surface1">
<path style=" stroke:none;fill-rule:nonzero;fill:rgb(0%,0%,0%);fill-opacity:1;" d="M 11 49.796875 C 10.621094 49.796875 10.261719 49.738281 9.929688 49.617188 C 9.597656 49.5 9.289062 49.300781 9.003906 49.015625 L 1.519531 41.578125 C 0.996094 41.058594 0.734375 40.421875 0.734375 39.667969 C 0.734375 38.910156 1.019531 38.25 1.589844 37.683594 C 2.113281 37.164062 2.777344 36.902344 3.585938 36.902344 C 4.394531 36.902344 5.058594 37.164062 5.582031 37.683594 L 8.148438 40.234375 L 8.148438 10.765625 L 5.511719 13.386719 C 4.988281 13.90625 4.34375 14.167969 3.585938 14.167969 C 2.824219 14.167969 2.160156 13.882812 1.589844 13.316406 C 1.066406 12.796875 0.804688 12.136719 0.804688 11.332031 C 0.804688 10.53125 1.066406 9.871094 1.589844 9.351562 L 9.003906 1.984375 C 9.289062 1.699219 9.597656 1.5 9.929688 1.378906 C 10.261719 1.261719 10.621094 1.203125 11 1.203125 C 11.378906 1.203125 11.738281 1.261719 12.070312 1.378906 C 12.402344 1.5 12.710938 1.699219 12.996094 1.984375 L 20.480469 9.421875 C 21.003906 9.941406 21.265625 10.578125 21.265625 11.332031 C 21.265625 12.089844 20.980469 12.75 20.410156 13.316406 C 19.886719 13.835938 19.222656 14.097656 18.414062 14.097656 C 17.605469 14.097656 16.941406 13.835938 16.417969 13.316406 L 13.851562 10.765625 L 13.851562 40.234375 L 16.488281 37.613281 C 17.011719 37.09375 17.65625 36.832031 18.414062 36.832031 C 19.175781 36.832031 19.839844 37.117188 20.410156 37.683594 C 20.933594 38.203125 21.195312 38.863281 21.195312 39.667969 C 21.195312 40.46875 20.933594 41.128906 20.410156 41.648438 L 12.996094 49.015625 C 12.710938 49.300781 12.402344 49.5 12.070312 49.617188 C 11.738281 49.738281 11.378906 49.796875 11 49.796875 Z M 11 49.796875 "/>
</g>
</svg>
