<?xml version="1.0" encoding="UTF-8"?>
<svg xmlns="http://www.w3.org/2000/svg" xmlns:xlink="http://www.w3.org/1999/xlink" width="25px" height="25px" viewBox="0 0 25 22" version="1.1">
<g id="surface1">
<path style=" stroke:none;fill-rule:nonzero;fill:rgb(0%,0%,0%);fill-opacity:1;" d="M 0.523438 2.457031 L 0.523438 7.484375 C 0.523438 8.4375 0.722656 9.378906 1.105469 10.253906 C 1.488281 11.128906 2.050781 11.917969 2.753906 12.574219 C 3.457031 13.230469 4.292969 13.742188 5.207031 14.074219 C 6.117188 14.40625 7.089844 14.550781 8.0625 14.503906 C 8.371094 15.527344 8.886719 16.480469 9.570312 17.308594 L 6.777344 20.039062 C 6.621094 20.203125 6.535156 20.425781 6.539062 20.652344 C 6.542969 20.878906 6.636719 21.097656 6.800781 21.257812 C 6.964844 21.417969 7.1875 21.511719 7.421875 21.515625 C 7.652344 21.519531 7.878906 21.433594 8.046875 21.28125 L 10.839844 18.550781 C 12.070312 19.519531 13.558594 20.128906 15.128906 20.308594 C 16.699219 20.488281 18.292969 20.230469 19.71875 19.5625 C 21.144531 18.894531 22.347656 17.84375 23.191406 16.535156 C 24.035156 15.226562 24.484375 13.714844 24.484375 12.167969 L 24.484375 6.019531 C 24.484375 5.476562 24.261719 4.953125 23.867188 4.570312 C 23.476562 4.1875 22.941406 3.96875 22.386719 3.96875 L 16.097656 3.96875 C 15.398438 3.96875 14.722656 4.054688 14.070312 4.210938 C 13.460938 3.078125 12.546875 2.128906 11.425781 1.46875 C 10.304688 0.808594 9.019531 0.457031 7.710938 0.457031 L 2.566406 0.457031 C 1.4375 0.457031 0.523438 1.351562 0.523438 2.457031 Z M 12.121094 17.300781 L 17.027344 12.503906 C 17.1875 12.339844 17.273438 12.117188 17.269531 11.890625 C 17.265625 11.664062 17.171875 11.445312 17.007812 11.285156 C 16.839844 11.125 16.621094 11.03125 16.386719 11.027344 C 16.152344 11.023438 15.929688 11.109375 15.757812 11.261719 L 10.851562 16.058594 C 10.109375 15.101562 9.65625 13.964844 9.542969 12.769531 C 9.425781 11.578125 9.65625 10.375 10.199219 9.300781 C 10.746094 8.226562 11.585938 7.324219 12.628906 6.691406 C 13.671875 6.0625 14.875 5.726562 16.101562 5.726562 L 22.386719 5.726562 C 22.464844 5.726562 22.542969 5.757812 22.597656 5.8125 C 22.65625 5.867188 22.6875 5.941406 22.6875 6.019531 L 22.6875 12.167969 C 22.6875 13.367188 22.34375 14.539062 21.699219 15.558594 C 21.050781 16.578125 20.128906 17.402344 19.03125 17.933594 C 17.933594 18.46875 16.703125 18.691406 15.484375 18.578125 C 14.261719 18.46875 13.097656 18.023438 12.121094 17.300781 Z M 7.714844 2.214844 C 9.695312 2.214844 11.429688 3.261719 12.367188 4.824219 C 11.054688 5.464844 9.933594 6.429688 9.121094 7.625 L 6.847656 5.402344 C 6.675781 5.246094 6.449219 5.160156 6.21875 5.164062 C 5.984375 5.167969 5.761719 5.261719 5.597656 5.421875 C 5.433594 5.582031 5.339844 5.800781 5.335938 6.027344 C 5.332031 6.257812 5.417969 6.476562 5.574219 6.644531 L 8.253906 9.265625 C 7.824219 10.378906 7.648438 11.570312 7.738281 12.757812 L 7.710938 12.757812 C 6.28125 12.757812 4.910156 12.203125 3.898438 11.214844 C 2.886719 10.226562 2.320312 8.882812 2.320312 7.484375 L 2.320312 2.457031 C 2.320312 2.324219 2.429688 2.214844 2.566406 2.214844 Z M 7.714844 2.214844 "/>
</g>
</svg>
