<svg width="40" height="36" viewBox="0 0 40 36" fill="none" xmlns="http://www.w3.org/2000/svg">
<path d="M0.837158 4.01792V12.25C0.837117 13.8075 1.15346 15.3488 1.76699 16.7804C2.38053 18.212 3.27847 19.504 4.40635 20.5781C5.53424 21.6522 6.86856 22.486 8.32838 23.029C9.78819 23.5719 11.3431 23.8126 12.8987 23.7366C13.3962 25.4088 14.216 26.9676 15.3118 28.3251L10.846 32.789C10.5921 33.0615 10.4538 33.4219 10.4604 33.7943C10.467 34.1667 10.6178 34.5221 10.8812 34.7854C11.1446 35.0488 11.4999 35.1997 11.8723 35.2062C12.2447 35.2128 12.6052 35.0746 12.8777 34.8207L17.3435 30.3568C19.3144 31.944 21.6941 32.9414 24.2077 33.2338C26.7214 33.5262 29.2664 33.1016 31.5491 32.0091C33.8317 30.9166 35.7587 29.2007 37.1077 27.0597C38.4566 24.9186 39.1724 22.4396 39.1724 19.909V9.85033C39.1724 8.96075 38.819 8.10761 38.19 7.47858C37.561 6.84955 36.7078 6.49617 35.8182 6.49617H25.7577C24.6402 6.49617 23.5535 6.63225 22.5147 6.88908C21.5382 5.03594 20.0741 3.48468 18.2805 2.40277C16.4869 1.32085 14.4318 0.749366 12.3372 0.750001H4.10507C2.30149 0.750001 0.837158 2.21242 0.837158 4.01792ZM19.3924 28.3097L27.245 20.4629C27.4989 20.1904 27.6371 19.83 27.6306 19.4576C27.624 19.0852 27.4731 18.7299 27.2098 18.4665C26.9464 18.2031 26.5911 18.0522 26.2187 18.0457C25.8463 18.0391 25.4858 18.1773 25.2133 18.4312L17.3607 26.2781C16.1755 24.7146 15.4502 22.8514 15.2665 20.898C15.0827 18.9447 15.4478 16.9789 16.3207 15.2218C17.1935 13.4647 18.5395 11.9862 20.2071 10.9525C21.8747 9.91889 23.7976 9.37122 25.7596 9.37117H35.8182C35.9453 9.37117 36.0672 9.42165 36.1571 9.51151C36.2469 9.60137 36.2974 9.72325 36.2974 9.85033V19.909C36.2974 21.8708 35.7499 23.7936 34.7165 25.4612C33.6831 27.1287 32.2049 28.4747 30.4481 29.3477C28.6912 30.2208 26.7256 30.5861 24.7724 30.4028C22.8193 30.2194 20.956 29.4945 19.3924 28.3097ZM12.341 3.625C15.515 3.625 18.2903 5.34042 19.7872 7.89533C17.6863 8.94364 15.8958 10.5227 14.5931 12.4762L10.9533 8.83833C10.6808 8.58441 10.3204 8.44618 9.94799 8.45275C9.57558 8.45932 9.22026 8.61018 8.95688 8.87356C8.69351 9.13693 8.54264 9.49226 8.53607 9.86467C8.5295 10.2371 8.66774 10.5975 8.92166 10.87L13.2092 15.1595C12.5199 16.9816 12.2367 18.9321 12.3793 20.875H12.3372C10.0497 20.875 7.85586 19.9663 6.23836 18.3488C4.62086 16.7313 3.71216 14.5375 3.71216 12.25V4.01792C3.71216 3.80133 3.88849 3.625 4.10507 3.625H12.3372H12.341Z" fill="black"/>
</svg>
