<?xml version="1.0" encoding="UTF-8"?>
<svg xmlns="http://www.w3.org/2000/svg" xmlns:xlink="http://www.w3.org/1999/xlink" width="22px" height="px" viewBox="0 0 22 22" version="1.1">
<g id="surface1">
<path style=" stroke:none;fill-rule:nonzero;fill:rgb(0%,0%,0%);fill-opacity:1;" d="M 2.257812 14.730469 C 2.402344 14.585938 2.488281 14.386719 2.488281 14.183594 C 2.488281 13.976562 2.402344 13.777344 2.257812 13.632812 C 2.113281 13.488281 1.914062 13.402344 1.707031 13.402344 C 1.503906 13.402344 1.300781 13.488281 1.15625 13.632812 C 1.011719 13.777344 0.929688 13.976562 0.929688 14.183594 C 0.929688 14.386719 1.011719 14.585938 1.15625 14.730469 C 1.300781 14.878906 1.503906 14.960938 1.707031 14.960938 C 1.914062 14.960938 2.113281 14.878906 2.257812 14.730469 Z M 2.257812 14.730469 "/>
<path style=" stroke:none;fill-rule:nonzero;fill:rgb(0%,0%,0%);fill-opacity:1;" d="M 2.992188 12.390625 C 3.195312 12.390625 3.398438 12.308594 3.542969 12.164062 C 3.6875 12.019531 3.769531 11.816406 3.769531 11.613281 C 3.769531 11.40625 3.6875 11.207031 3.542969 11.0625 C 3.398438 10.917969 3.195312 10.835938 2.992188 10.835938 C 2.789062 10.835938 2.585938 10.917969 2.441406 11.0625 C 2.296875 11.207031 2.214844 11.40625 2.214844 11.613281 C 2.214844 11.816406 2.296875 12.019531 2.441406 12.164062 C 2.585938 12.308594 2.789062 12.390625 2.992188 12.390625 Z M 2.992188 12.390625 "/>
<path style=" stroke:none;fill-rule:nonzero;fill:rgb(0%,0%,0%);fill-opacity:1;" d="M 5.5625 18.542969 C 5.355469 18.542969 5.15625 18.625 5.011719 18.769531 C 4.867188 18.914062 4.78125 19.117188 4.78125 19.320312 C 4.78125 19.523438 4.867188 19.726562 5.011719 19.871094 C 5.15625 20.015625 5.355469 20.097656 5.5625 20.097656 C 5.765625 20.097656 5.96875 20.015625 6.113281 19.871094 C 6.257812 19.726562 6.339844 19.523438 6.339844 19.320312 C 6.339844 19.117188 6.257812 18.914062 6.113281 18.769531 C 5.96875 18.625 5.765625 18.542969 5.5625 18.542969 Z M 5.5625 18.542969 "/>
<path style=" stroke:none;fill-rule:nonzero;fill:rgb(0%,0%,0%);fill-opacity:1;" d="M 7.613281 20.441406 C 7.410156 20.441406 7.207031 20.527344 7.0625 20.671875 C 6.917969 20.816406 6.835938 21.015625 6.835938 21.222656 C 6.835938 21.425781 6.917969 21.628906 7.0625 21.773438 C 7.207031 21.917969 7.410156 22 7.613281 22 C 7.820312 22 8.019531 21.917969 8.164062 21.773438 C 8.308594 21.628906 8.390625 21.425781 8.390625 21.222656 C 8.390625 21.015625 8.308594 20.816406 8.164062 20.671875 C 8.019531 20.527344 7.820312 20.441406 7.613281 20.441406 Z M 7.613281 20.441406 "/>
<path style=" stroke:none;fill-rule:nonzero;fill:rgb(0%,0%,0%);fill-opacity:1;" d="M 8.132812 17.257812 C 7.925781 17.257812 7.726562 17.339844 7.582031 17.484375 C 7.4375 17.628906 7.351562 17.832031 7.351562 18.035156 C 7.351562 18.242188 7.4375 18.441406 7.582031 18.585938 C 7.726562 18.730469 7.925781 18.8125 8.132812 18.8125 C 8.335938 18.8125 8.535156 18.730469 8.679688 18.585938 C 8.824219 18.441406 8.910156 18.242188 8.910156 18.035156 C 8.910156 17.832031 8.824219 17.628906 8.679688 17.484375 C 8.535156 17.339844 8.335938 17.257812 8.132812 17.257812 Z M 8.132812 17.257812 "/>
<path style=" stroke:none;fill-rule:nonzero;fill:rgb(0%,0%,0%);fill-opacity:1;" d="M 5.054688 15.464844 C 5.054688 15.261719 4.972656 15.0625 4.828125 14.914062 C 4.683594 14.769531 4.480469 14.6875 4.277344 14.6875 C 4.074219 14.6875 3.871094 14.769531 3.726562 14.914062 C 3.582031 15.0625 3.5 15.261719 3.5 15.464844 C 3.5 15.671875 3.582031 15.871094 3.726562 16.015625 C 3.871094 16.160156 4.074219 16.246094 4.277344 16.246094 C 4.480469 16.246094 4.683594 16.160156 4.828125 16.015625 C 4.972656 15.871094 5.054688 15.671875 5.054688 15.464844 Z M 5.054688 15.464844 "/>
<path style=" stroke:none;fill-rule:nonzero;fill:rgb(0%,0%,0%);fill-opacity:1;" d="M 2.992188 17.257812 C 2.789062 17.257812 2.585938 17.339844 2.441406 17.484375 C 2.296875 17.628906 2.214844 17.832031 2.214844 18.035156 C 2.214844 18.242188 2.296875 18.441406 2.441406 18.585938 C 2.585938 18.730469 2.789062 18.8125 2.992188 18.8125 C 3.195312 18.8125 3.398438 18.730469 3.542969 18.585938 C 3.6875 18.441406 3.769531 18.242188 3.769531 18.035156 C 3.769531 17.832031 3.6875 17.628906 3.542969 17.484375 C 3.398438 17.339844 3.195312 17.257812 2.992188 17.257812 Z M 2.992188 17.257812 "/>
<path style=" stroke:none;fill-rule:nonzero;fill:rgb(0%,0%,0%);fill-opacity:1;" d="M 2.476562 20.441406 C 2.269531 20.441406 2.070312 20.527344 1.925781 20.671875 C 1.78125 20.816406 1.695312 21.015625 1.695312 21.222656 C 1.695312 21.425781 1.78125 21.628906 1.925781 21.773438 C 2.070312 21.917969 2.269531 22 2.476562 22 C 2.679688 22 2.878906 21.917969 3.023438 21.773438 C 3.171875 21.628906 3.253906 21.425781 3.253906 21.222656 C 3.253906 21.015625 3.171875 20.816406 3.023438 20.671875 C 2.878906 20.527344 2.679688 20.441406 2.476562 20.441406 Z M 2.476562 20.441406 "/>
<path style=" stroke:none;fill-rule:nonzero;fill:rgb(0%,0%,0%);fill-opacity:1;" d="M 15.542969 5.566406 C 15.25 5.269531 14.863281 5.121094 14.476562 5.121094 C 14.089844 5.121094 13.707031 5.265625 13.410156 5.558594 C 13.300781 5.667969 13.210938 5.789062 13.140625 5.917969 C 13.074219 5.789062 12.984375 5.664062 12.875 5.554688 C 12.585938 5.261719 12.199219 5.113281 11.808594 5.113281 C 11.425781 5.113281 11.039062 5.257812 10.746094 5.546875 C 10.148438 6.132812 10.140625 7.085938 10.722656 7.675781 C 10.828125 7.789062 10.949219 7.875 11.078125 7.945312 C 10.949219 8.011719 10.828125 8.101562 10.71875 8.210938 C 10.121094 8.796875 10.113281 9.75 10.695312 10.339844 C 10.988281 10.636719 11.375 10.785156 11.761719 10.785156 C 12.144531 10.785156 12.53125 10.640625 12.828125 10.347656 C 12.9375 10.238281 13.027344 10.117188 13.097656 9.988281 C 13.164062 10.117188 13.25 10.238281 13.359375 10.351562 C 13.652344 10.644531 14.039062 10.792969 14.425781 10.792969 C 14.808594 10.792969 15.195312 10.648438 15.492188 10.359375 C 16.085938 9.773438 16.097656 8.820312 15.515625 8.226562 C 15.40625 8.117188 15.285156 8.03125 15.15625 7.960938 C 15.285156 7.890625 15.410156 7.804688 15.519531 7.695312 C 16.113281 7.109375 16.125 6.15625 15.542969 5.566406 Z M 14.457031 9.292969 C 14.097656 9.652344 13.621094 9.847656 13.117188 9.847656 C 12.609375 9.847656 12.132812 9.652344 11.777344 9.296875 C 11.417969 8.9375 11.21875 8.460938 11.222656 7.953125 C 11.222656 7.445312 11.417969 6.96875 11.777344 6.613281 C 12.136719 6.253906 12.613281 6.054688 13.121094 6.054688 C 13.625 6.054688 14.101562 6.253906 14.460938 6.609375 C 14.820312 6.96875 15.015625 7.445312 15.015625 7.953125 C 15.015625 8.457031 14.816406 8.933594 14.457031 9.292969 Z M 14.457031 9.292969 "/>
<path style=" stroke:none;fill-rule:nonzero;fill:rgb(0%,0%,0%);fill-opacity:1;" d="M 13.121094 6.988281 C 12.875 6.988281 12.628906 7.085938 12.4375 7.273438 C 12.0625 7.648438 12.0625 8.257812 12.4375 8.632812 C 12.625 8.820312 12.871094 8.914062 13.117188 8.914062 C 13.363281 8.914062 13.609375 8.820312 13.796875 8.632812 C 14.175781 8.253906 14.175781 7.648438 13.800781 7.269531 C 13.613281 7.082031 13.367188 6.988281 13.121094 6.988281 Z M 13.121094 6.988281 "/>
<path style=" stroke:none;fill-rule:nonzero;fill:rgb(0%,0%,0%);fill-opacity:1;" d="M 4.382812 8.886719 C 4.320312 8.765625 4.28125 8.636719 4.257812 8.507812 L 3.671875 9.097656 C 3.441406 9.324219 3.386719 9.675781 3.535156 9.960938 C 5.230469 13.289062 7.78125 15.839844 11.109375 17.539062 C 11.214844 17.59375 11.332031 17.617188 11.445312 17.617188 C 11.640625 17.617188 11.832031 17.542969 11.972656 17.398438 L 12.5625 16.8125 C 12.429688 16.789062 12.304688 16.75 12.183594 16.6875 C 8.757812 14.9375 6.132812 12.3125 4.382812 8.886719 Z M 4.382812 8.886719 "/>
<path style=" stroke:none;fill-rule:nonzero;fill:rgb(0%,0%,0%);fill-opacity:1;" d="M 21.046875 7.699219 C 19.324219 4.328125 16.742188 1.746094 13.371094 0.0273438 C 13.335938 0.0078125 13.300781 0 13.265625 0 C 13.21875 0 13.175781 0.0117188 13.140625 0.0351562 C 9.414062 2.394531 7.558594 4.25 5.203125 7.972656 C 5.15625 8.042969 5.152344 8.132812 5.191406 8.203125 C 6.910156 11.578125 9.492188 14.160156 12.867188 15.878906 C 12.9375 15.917969 13.027344 15.914062 13.097656 15.871094 C 16.824219 13.511719 18.675781 11.65625 21.035156 7.933594 C 21.078125 7.863281 21.082031 7.773438 21.046875 7.699219 Z M 16.878906 9.296875 C 16.875 9.949219 16.613281 10.5625 16.148438 11.023438 C 15.683594 11.476562 15.074219 11.730469 14.425781 11.730469 C 13.941406 11.730469 13.480469 11.589844 13.085938 11.328125 C 12.695312 11.582031 12.238281 11.71875 11.761719 11.71875 C 11.105469 11.71875 10.488281 11.460938 10.03125 10.996094 C 9.574219 10.535156 9.324219 9.921875 9.328125 9.273438 C 9.332031 8.789062 9.476562 8.328125 9.738281 7.933594 C 9.484375 7.539062 9.351562 7.082031 9.359375 6.601562 C 9.363281 5.949219 9.625 5.339844 10.089844 4.882812 C 10.550781 4.425781 11.164062 4.175781 11.808594 4.175781 C 12.292969 4.175781 12.753906 4.316406 13.148438 4.578125 C 13.539062 4.324219 13.996094 4.1875 14.476562 4.1875 C 15.132812 4.1875 15.746094 4.445312 16.207031 4.910156 C 16.664062 5.375 16.914062 5.988281 16.90625 6.640625 C 16.902344 7.121094 16.757812 7.578125 16.5 7.96875 C 16.75 8.363281 16.882812 8.820312 16.878906 9.296875 Z M 16.878906 9.296875 "/>
</g>
</svg>
