<?xml version="1.0" encoding="UTF-8"?>
<svg xmlns="http://www.w3.org/2000/svg" xmlns:xlink="http://www.w3.org/1999/xlink" width="22px" height="px" viewBox="0 0 22 25" version="1.1">
<g id="surface1">
<path style=" stroke:none;fill-rule:nonzero;fill:rgb(0%,0%,0%);fill-opacity:1;" d="M 19.789062 5.199219 C 21.25 3.203125 21.828125 1.222656 21.851562 1.140625 C 21.917969 0.90625 21.875 0.660156 21.734375 0.460938 C 21.59375 0.261719 21.367188 0.132812 21.121094 0.113281 C 20.257812 0.0390625 19.433594 0 18.671875 0 C 14.835938 0 12.242188 0.953125 10.964844 2.835938 C 9.632812 4.800781 10.171875 7.140625 10.589844 8.316406 C 10.589844 8.316406 10.589844 8.316406 10.585938 8.316406 C 10.332031 8.113281 10.0625 7.957031 9.808594 7.839844 C 9.46875 6.050781 8.273438 4.234375 5.78125 4.234375 C 4.277344 4.234375 2.425781 4.90625 0.28125 6.226562 C 0.128906 6.320312 0.0273438 6.476562 0.00390625 6.648438 C -0.0195312 6.820312 0.0390625 6.996094 0.160156 7.125 C 0.269531 7.242188 2.894531 9.957031 6.335938 9.957031 C 7.191406 9.957031 8.023438 9.789062 8.820312 9.453125 C 9.027344 9.527344 9.628906 9.78125 9.804688 10.339844 C 9.648438 11.003906 9.550781 11.734375 9.515625 12.511719 L 1.910156 12.511719 C 1.394531 12.511719 0.972656 12.921875 0.972656 13.425781 L 0.972656 14.375 C 0.972656 14.882812 1.394531 15.289062 1.910156 15.289062 L 2.546875 15.289062 L 3.886719 24.21875 C 3.953125 24.667969 4.347656 25 4.8125 25 L 16.835938 25 C 17.300781 25 17.699219 24.667969 17.765625 24.21875 L 19.101562 15.289062 L 19.742188 15.289062 C 20.257812 15.289062 20.679688 14.882812 20.679688 14.378906 L 20.679688 13.425781 C 20.679688 12.921875 20.257812 12.511719 19.742188 12.511719 L 11.421875 12.511719 C 11.492188 11.144531 11.78125 10.039062 12.179688 9.34375 C 15.195312 9.320312 17.824219 7.886719 19.789062 5.199219 Z M 1.597656 6.824219 C 3.253906 5.886719 4.660156 5.410156 5.78125 5.410156 C 7.332031 5.410156 8.058594 6.363281 8.402344 7.257812 C 8.351562 7.230469 8.300781 7.203125 8.25 7.175781 C 7.742188 6.910156 7.039062 6.613281 6.300781 6.453125 C 6.117188 6.410156 5.929688 6.378906 5.75 6.355469 C 5.65625 6.339844 5.566406 6.332031 5.476562 6.324219 C 5.386719 6.316406 5.296875 6.3125 5.210938 6.304688 C 5.125 6.304688 5.039062 6.300781 4.953125 6.300781 C 4.871094 6.300781 4.789062 6.304688 4.707031 6.304688 C 4.550781 6.316406 4.398438 6.324219 4.261719 6.34375 C 4.195312 6.351562 4.128906 6.363281 4.070312 6.375 C 4.007812 6.386719 3.949219 6.394531 3.894531 6.40625 C 3.785156 6.429688 3.691406 6.449219 3.617188 6.472656 C 3.464844 6.515625 3.378906 6.539062 3.378906 6.539062 C 3.378906 6.539062 3.46875 6.535156 3.625 6.519531 C 3.703125 6.515625 3.796875 6.515625 3.90625 6.511719 C 3.960938 6.515625 4.019531 6.515625 4.078125 6.519531 C 4.140625 6.519531 4.203125 6.523438 4.269531 6.527344 C 4.402344 6.535156 4.542969 6.554688 4.691406 6.578125 C 4.765625 6.589844 4.84375 6.605469 4.921875 6.617188 C 4.996094 6.636719 5.074219 6.65625 5.15625 6.671875 C 5.234375 6.695312 5.3125 6.71875 5.394531 6.738281 C 5.472656 6.765625 5.554688 6.789062 5.632812 6.820312 C 5.792969 6.875 5.953125 6.9375 6.109375 7.011719 C 6.734375 7.289062 7.296875 7.679688 7.679688 8 C 7.875 8.15625 8.023438 8.300781 8.125 8.398438 C 8.140625 8.414062 8.152344 8.429688 8.167969 8.441406 C 7.574219 8.667969 6.960938 8.78125 6.335938 8.78125 C 4.261719 8.78125 2.464844 7.542969 1.597656 6.824219 Z M 12.355469 3.730469 C 13.304688 2.332031 15.429688 1.625 18.671875 1.625 C 19.0625 1.625 19.46875 1.632812 19.890625 1.65625 C 19.125 3.464844 17.039062 7.257812 12.875 7.683594 C 12.882812 7.65625 12.890625 7.632812 12.898438 7.601562 C 12.957031 7.417969 13.050781 7.152344 13.183594 6.839844 C 13.25 6.679688 13.328125 6.511719 13.414062 6.335938 C 13.503906 6.160156 13.597656 5.972656 13.707031 5.785156 C 13.816406 5.597656 13.933594 5.40625 14.0625 5.21875 C 14.128906 5.125 14.191406 5.027344 14.261719 4.9375 L 14.363281 4.796875 L 14.472656 4.660156 C 14.617188 4.472656 14.773438 4.300781 14.933594 4.128906 C 15.011719 4.046875 15.097656 3.96875 15.175781 3.886719 C 15.261719 3.808594 15.34375 3.730469 15.425781 3.65625 C 15.511719 3.585938 15.597656 3.515625 15.679688 3.445312 C 15.765625 3.382812 15.847656 3.316406 15.929688 3.253906 C 16.015625 3.195312 16.097656 3.140625 16.179688 3.085938 C 16.261719 3.027344 16.34375 2.984375 16.417969 2.933594 C 16.457031 2.910156 16.496094 2.886719 16.535156 2.867188 C 16.574219 2.84375 16.609375 2.824219 16.648438 2.804688 C 16.71875 2.765625 16.789062 2.726562 16.855469 2.691406 C 16.992188 2.628906 17.109375 2.570312 17.207031 2.527344 C 17.40625 2.449219 17.523438 2.402344 17.523438 2.402344 C 17.523438 2.402344 17.398438 2.421875 17.183594 2.460938 C 17.078125 2.484375 16.949219 2.519531 16.800781 2.554688 C 16.726562 2.574219 16.648438 2.597656 16.566406 2.621094 C 16.523438 2.632812 16.480469 2.648438 16.4375 2.660156 C 16.394531 2.675781 16.351562 2.691406 16.308594 2.707031 C 16.21875 2.738281 16.125 2.769531 16.027344 2.808594 C 15.933594 2.847656 15.835938 2.886719 15.734375 2.929688 C 15.636719 2.976562 15.535156 3.027344 15.429688 3.074219 C 15.328125 3.128906 15.226562 3.183594 15.117188 3.238281 C 15.015625 3.300781 14.910156 3.363281 14.804688 3.425781 C 14.699219 3.492188 14.59375 3.558594 14.488281 3.632812 C 14.28125 3.773438 14.074219 3.929688 13.875 4.09375 C 13.675781 4.253906 13.484375 4.429688 13.300781 4.601562 C 13.117188 4.78125 12.941406 4.960938 12.78125 5.140625 C 12.617188 5.320312 12.46875 5.5 12.328125 5.671875 C 12.191406 5.847656 12.0625 6.015625 11.953125 6.175781 C 11.90625 6.238281 11.867188 6.300781 11.828125 6.359375 C 11.722656 5.445312 11.839844 4.496094 12.355469 3.730469 Z M 12.355469 3.730469 "/>
</g>
</svg>
