<?xml version="1.0" encoding="UTF-8"?>
<svg xmlns="http://www.w3.org/2000/svg" xmlns:xlink="http://www.w3.org/1999/xlink" width="22px" height="px" viewBox="0 0 22 22" version="1.1">
<g id="surface1">
<path style=" stroke:none;fill-rule:nonzero;fill:rgb(0%,0%,0%);fill-opacity:1;" d="M 10.980469 3.992188 C 10.695312 3.992188 10.460938 3.898438 10.269531 3.707031 C 10.078125 3.515625 9.980469 3.277344 9.980469 2.996094 L 9.980469 1 C 9.980469 0.714844 10.078125 0.476562 10.269531 0.285156 C 10.460938 0.09375 10.695312 0 10.980469 0 C 11.261719 0 11.5 0.09375 11.691406 0.285156 C 11.882812 0.476562 11.976562 0.714844 11.976562 1 L 11.976562 2.996094 C 11.976562 3.277344 11.882812 3.515625 11.691406 3.707031 C 11.5 3.898438 11.261719 3.992188 10.980469 3.992188 Z M 15.921875 6.039062 C 15.738281 5.855469 15.644531 5.625 15.644531 5.351562 C 15.644531 5.078125 15.738281 4.839844 15.921875 4.640625 L 17.316406 3.21875 C 17.515625 3.019531 17.753906 2.917969 18.027344 2.917969 C 18.304688 2.917969 18.539062 3.019531 18.742188 3.21875 C 18.921875 3.402344 19.015625 3.636719 19.015625 3.917969 C 19.015625 4.199219 18.921875 4.433594 18.742188 4.617188 L 17.316406 6.039062 C 17.136719 6.222656 16.902344 6.3125 16.621094 6.3125 C 16.335938 6.3125 16.101562 6.222656 15.921875 6.039062 Z M 18.964844 11.976562 C 18.683594 11.976562 18.445312 11.882812 18.253906 11.691406 C 18.0625 11.5 17.964844 11.261719 17.964844 10.980469 C 17.964844 10.695312 18.0625 10.460938 18.253906 10.269531 C 18.445312 10.078125 18.683594 9.980469 18.964844 9.980469 L 20.960938 9.980469 C 21.242188 9.980469 21.480469 10.078125 21.671875 10.269531 C 21.863281 10.460938 21.960938 10.695312 21.960938 10.980469 C 21.960938 11.261719 21.863281 11.5 21.671875 11.691406 C 21.480469 11.882812 21.242188 11.976562 20.960938 11.976562 Z M 10.980469 21.960938 C 10.695312 21.960938 10.460938 21.863281 10.269531 21.671875 C 10.078125 21.480469 9.980469 21.242188 9.980469 20.960938 L 9.980469 18.964844 C 9.980469 18.683594 10.078125 18.445312 10.269531 18.253906 C 10.460938 18.0625 10.695312 17.964844 10.980469 17.964844 C 11.261719 17.964844 11.5 18.0625 11.691406 18.253906 C 11.882812 18.445312 11.976562 18.683594 11.976562 18.964844 L 11.976562 20.960938 C 11.976562 21.242188 11.882812 21.480469 11.691406 21.671875 C 11.5 21.863281 11.261719 21.960938 10.980469 21.960938 Z M 4.640625 6.039062 L 3.21875 4.640625 C 3.019531 4.441406 2.917969 4.199219 2.917969 3.917969 C 2.917969 3.636719 3.019531 3.402344 3.21875 3.21875 C 3.402344 3.035156 3.636719 2.945312 3.917969 2.945312 C 4.199219 2.945312 4.433594 3.035156 4.617188 3.21875 L 6.039062 4.640625 C 6.222656 4.824219 6.3125 5.058594 6.3125 5.339844 C 6.3125 5.621094 6.222656 5.855469 6.039062 6.039062 C 5.839844 6.222656 5.605469 6.3125 5.339844 6.3125 C 5.074219 6.3125 4.839844 6.222656 4.640625 6.039062 Z M 17.316406 18.742188 L 15.921875 17.316406 C 15.738281 17.117188 15.644531 16.882812 15.644531 16.605469 C 15.644531 16.332031 15.738281 16.101562 15.921875 15.921875 C 16.101562 15.738281 16.332031 15.644531 16.605469 15.644531 C 16.882812 15.644531 17.117188 15.738281 17.316406 15.921875 L 18.742188 17.316406 C 18.941406 17.5 19.035156 17.734375 19.027344 18.015625 C 19.019531 18.300781 18.921875 18.539062 18.742188 18.742188 C 18.539062 18.941406 18.300781 19.039062 18.015625 19.039062 C 17.734375 19.039062 17.5 18.941406 17.316406 18.742188 Z M 1 11.976562 C 0.714844 11.976562 0.476562 11.882812 0.289062 11.691406 C 0.0976562 11.5 0 11.261719 0 10.980469 C 0 10.695312 0.0976562 10.460938 0.289062 10.269531 C 0.476562 10.078125 0.714844 9.980469 1 9.980469 L 2.996094 9.980469 C 3.277344 9.980469 3.515625 10.078125 3.707031 10.269531 C 3.898438 10.460938 3.992188 10.695312 3.992188 10.980469 C 3.992188 11.261719 3.898438 11.5 3.707031 11.691406 C 3.515625 11.882812 3.277344 11.976562 2.996094 11.976562 Z M 3.21875 18.742188 C 3.035156 18.558594 2.945312 18.324219 2.945312 18.042969 C 2.945312 17.757812 3.035156 17.527344 3.21875 17.34375 L 4.640625 15.921875 C 4.824219 15.738281 5.054688 15.644531 5.328125 15.644531 C 5.601562 15.644531 5.839844 15.738281 6.039062 15.921875 C 6.238281 16.121094 6.339844 16.355469 6.339844 16.632812 C 6.339844 16.90625 6.238281 17.144531 6.039062 17.34375 L 4.640625 18.742188 C 4.441406 18.941406 4.199219 19.039062 3.917969 19.039062 C 3.636719 19.039062 3.402344 18.941406 3.21875 18.742188 Z M 10.980469 16.96875 C 9.316406 16.96875 7.902344 16.386719 6.738281 15.222656 C 5.574219 14.058594 4.992188 12.644531 4.992188 10.980469 C 4.992188 9.316406 5.574219 7.902344 6.738281 6.738281 C 7.902344 5.574219 9.316406 4.992188 10.980469 4.992188 C 12.644531 4.992188 14.058594 5.574219 15.222656 6.738281 C 16.386719 7.902344 16.96875 9.316406 16.96875 10.980469 C 16.96875 12.644531 16.386719 14.058594 15.222656 15.222656 C 14.058594 16.386719 12.644531 16.96875 10.980469 16.96875 Z M 10.980469 14.972656 C 12.078125 14.972656 13.015625 14.582031 13.800781 13.800781 C 14.582031 13.015625 14.972656 12.078125 14.972656 10.980469 C 14.972656 9.882812 14.582031 8.941406 13.800781 8.160156 C 13.015625 7.378906 12.078125 6.988281 10.980469 6.988281 C 9.882812 6.988281 8.941406 7.378906 8.160156 8.160156 C 7.378906 8.941406 6.988281 9.882812 6.988281 10.980469 C 6.988281 12.078125 7.378906 13.015625 8.160156 13.800781 C 8.941406 14.582031 9.882812 14.972656 10.980469 14.972656 Z M 10.980469 14.972656 "/>
</g>
</svg>
