<svg width="40" height="40" viewBox="0 0 40 40" fill="none" xmlns="http://www.w3.org/2000/svg">
<path d="M18.4512 13.3594C15.4234 13.3594 12.9682 15.8268 12.9682 18.8716C12.9682 21.9164 15.4234 24.3836 18.4512 24.3836C21.479 24.3836 23.9334 21.9164 23.9334 18.8716C23.9334 15.8268 21.4792 13.3594 18.4512 13.3594ZM31.0184 20.9058C31.8962 20.9058 32.7392 21.053 33.527 21.3206V10.6036C33.527 9.46181 32.6084 8.53561 31.4722 8.53561H26.1374C24.417 6.73161 22.0328 4.40161 21.1922 4.40161H19.8218H15.7092C14.869 4.40161 12.4846 6.73181 10.7642 8.53561H5.4302C4.294 8.53561 3.3736 9.46181 3.3736 10.6036V29.2078C3.3736 30.3496 4.2942 31.274 5.4302 31.274H23.5922C23.3249 30.4698 23.1887 29.6279 23.1888 28.7804C23.189 24.4304 26.695 20.9058 31.0184 20.9058ZM10.9126 18.8716C10.9126 14.685 14.2874 11.2916 18.4514 11.2916C22.6146 11.2916 25.9902 14.6852 25.9902 18.8716C25.9902 23.0582 22.6146 26.4516 18.4514 26.4516C14.2872 26.4516 10.9126 23.0582 10.9126 18.8716ZM31.0184 22.0044C27.2986 22.0044 24.2804 25.0378 24.2804 28.7802C24.2804 32.5224 27.2988 35.5558 31.0184 35.5558C34.7418 35.5558 37.7566 32.5224 37.7566 28.7802C37.7566 25.0378 34.7418 22.0044 31.0184 22.0044ZM34.4794 29.3294H31.5658V32.26C31.5658 32.6632 31.2396 32.9912 30.8384 32.9912C30.6448 32.9909 30.4592 32.9137 30.3224 32.7766C30.1857 32.6395 30.109 32.4537 30.1092 32.26V29.3296H27.1938C26.7926 29.3296 26.4662 29.0014 26.4662 28.5966C26.4662 28.1916 26.7926 27.8636 27.1938 27.8636H30.1092V24.935C30.1092 24.53 30.4354 24.2018 30.8384 24.2018C31.2396 24.2018 31.5658 24.53 31.5658 24.935V27.8636H34.4794C34.8806 27.8636 35.2068 28.1916 35.2068 28.5966C35.2068 29.0014 34.8806 29.3294 34.4794 29.3294Z" fill="#606060"/>
</svg>
