<?xml version="1.0" encoding="UTF-8"?>
<svg xmlns="http://www.w3.org/2000/svg" xmlns:xlink="http://www.w3.org/1999/xlink" width="22px" height="px" viewBox="0 0 22 22" version="1.1">
<g id="surface1">
<path style=" stroke:none;fill-rule:nonzero;fill:rgb(0%,0%,0%);fill-opacity:1;" d="M 21.808594 13.585938 C 21.160156 12.664062 20.511719 12.644531 18.867188 13.507812 L 15.707031 15.441406 C 15.460938 15.574219 15.078125 15.65625 14.632812 15.707031 C 14.285156 15.746094 13.972656 15.898438 13.683594 16.089844 C 13.644531 16.117188 13.605469 16.132812 13.5625 16.132812 L 10 16.132812 C 8.898438 16.132812 8.898438 16.683594 8.898438 16.863281 C 8.898438 17.066406 8.734375 17.230469 8.535156 17.230469 C 8.332031 17.230469 8.167969 17.066406 8.167969 16.863281 C 8.167969 15.945312 8.851562 15.398438 10 15.398438 L 13.007812 15.398438 C 13.246094 15.398438 13.421875 15.160156 13.332031 14.9375 C 13.28125 14.816406 13.210938 14.6875 13.125 14.558594 C 12.550781 13.699219 11.566406 13.1875 10.488281 13.1875 L 9.058594 13.1875 C 8.285156 13.1875 7.539062 12.949219 6.960938 12.511719 C 5.644531 11.523438 3.574219 12.59375 2.566406 13.234375 L 2.566406 12.464844 L 0 12.464844 L 0 21.996094 L 2.566406 21.996094 L 2.566406 20.898438 L 7.328125 20.898438 C 8.082031 20.898438 8.832031 20.839844 9.574219 20.726562 L 14.324219 20.003906 C 14.496094 20.003906 14.671875 19.980469 14.828125 19.945312 C 15.265625 19.886719 15.683594 19.675781 16.039062 19.34375 L 21.59375 15.015625 L 21.601562 15.007812 C 22.035156 14.664062 22.128906 14.035156 21.808594 13.585938 Z M 1.832031 13.75 L 1.832031 21.261719 L 0.734375 21.261719 L 0.734375 13.199219 L 1.832031 13.199219 Z M 1.832031 13.75 "/>
<path style=" stroke:none;fill-rule:nonzero;fill:rgb(0%,0%,0%);fill-opacity:1;" d="M 6.597656 6.601562 C 9.023438 6.601562 10.996094 4.628906 10.996094 2.203125 C 10.996094 2 10.832031 1.835938 10.628906 1.835938 C 8.203125 1.835938 6.230469 3.808594 6.230469 6.234375 C 6.230469 6.4375 6.394531 6.601562 6.597656 6.601562 Z M 6.597656 6.601562 "/>
<path style=" stroke:none;fill-rule:nonzero;fill:rgb(0%,0%,0%);fill-opacity:1;" d="M 8.300781 7.980469 C 8.113281 8.054688 8.015625 8.265625 8.085938 8.453125 C 8.5 9.554688 9.316406 10.429688 10.382812 10.914062 C 10.964844 11.179688 11.582031 11.3125 12.203125 11.3125 C 12.722656 11.3125 13.246094 11.21875 13.75 11.03125 C 13.9375 10.960938 14.035156 10.75 13.964844 10.558594 C 13.550781 9.457031 12.734375 8.582031 11.667969 8.097656 C 10.597656 7.609375 9.402344 7.570312 8.300781 7.980469 Z M 8.300781 7.980469 "/>
<path style=" stroke:none;fill-rule:nonzero;fill:rgb(0%,0%,0%);fill-opacity:1;" d="M 13.214844 6.171875 C 13.273438 6.171875 13.332031 6.160156 13.382812 6.128906 C 15.539062 5.015625 16.382812 2.355469 15.265625 0.203125 C 15.222656 0.117188 15.144531 0.0507812 15.050781 0.0195312 C 14.960938 -0.0078125 14.859375 0 14.773438 0.0429688 C 12.621094 1.160156 11.773438 3.820312 12.890625 5.972656 C 12.957031 6.097656 13.082031 6.171875 13.214844 6.171875 Z M 13.214844 6.171875 "/>
</g>
</svg>
