<?xml version="1.0" encoding="utf-8"?>
<!-- Svg Vector Icons : http://www.onlinewebfonts.com/icon -->
<!DOCTYPE svg PUBLIC "-//W3C//DTD SVG 1.1//EN" "http://www.w3.org/Graphics/SVG/1.1/DTD/svg11.dtd">
<svg version="1.1" xmlns="http://www.w3.org/2000/svg" xmlns:xlink="http://www.w3.org/1999/xlink" x="0px" y="0px" viewBox="0 0 1000 1000" enable-background="new 0 0 1000 1000" xml:space="preserve">
<metadata> Svg Vector Icons : http://www.onlinewebfonts.com/icon </metadata>
<g><path d="M220.4,257.3c0,84.4,68.4,152.8,152.8,152.8c84.4,0,152.8-68.4,152.8-152.8c0-84.4-68.4-152.8-152.8-152.8C288.8,104.6,220.4,173,220.4,257.3L220.4,257.3z"/><path d="M622.7,661.8c-11.5-104.6-75.1-189.4-169.5-220.5c-23.4,14.5-50.6,23.2-80.1,23.2c-29.5,0-56.8-8.8-80.1-23.2c-94.3,31.1-157.9,116-169.5,220.5c-17,153.3,111.4,233.1,249.6,233.7C511.3,894.9,639.5,815.1,622.7,661.8z"/><path d="M62.7,263.5c35.9,34.1,39,113.3,93.5,156c25.2,19.7,9.3,101.5-60.6,94.1c-74-7.9-87.2-160.9-85.5-194.5C12.6,270.9,37.4,239.4,62.7,263.5z"/><path d="M612.6,217.9c0,61.7,50,111.8,111.8,111.8c61.7,0,111.8-50,111.8-111.8c0-61.7-50-111.8-111.8-111.8C662.6,106.1,612.6,156.2,612.6,217.9z"/><path d="M951.4,211.9c-26.2,24.9-28.6,82.8-68.4,114.1c-18.4,14.4-6.8,74.2,44.4,68.8c54.1-5.8,63.7-117.7,62.5-142.3C988.2,217.3,970,194.1,951.4,211.9z"/><path d="M907,503.2c-8.5-76.6-55.1-138.6-124-161.4c-17.1,10.6-37,17.1-58.6,17.1c-21.5,0-41.5-6.4-58.6-17.1c-52.2,17.3-91.6,57.3-111.2,108.8c63,41.3,104.5,110.9,113.6,193c0.9,8.3,1.3,16.3,1.4,24.3c17.6,4,36.2,6.1,55,6.1C825.5,673.7,919.3,615.5,907,503.2z"/></g>
</svg>