<svg width="32" height="36" viewBox="0 0 32 36" fill="none" xmlns="http://www.w3.org/2000/svg">
<path d="M19.125 21.375H12.375C5.54063 21.375 0 26.9156 0 33.75C0 34.9924 1.00758 36 2.25 36H29.25C30.4924 36 31.5 34.9924 31.5 33.75C31.5 26.9156 25.9594 21.375 19.125 21.375ZM3.44461 32.625C4.00008 28.1883 7.79063 24.75 12.375 24.75H19.125C23.7066 24.75 27.4992 28.1918 28.0547 32.625H3.44461ZM15.75 18C20.7204 18 24.75 13.9704 24.75 9C24.75 4.02961 20.7204 0 15.75 0C10.7796 0 6.75 4.02961 6.75 9C6.75 13.9711 10.7789 18 15.75 18ZM15.75 3.375C18.8515 3.375 21.375 5.89852 21.375 9C21.375 12.1015 18.8515 14.625 15.75 14.625C12.6485 14.625 10.125 12.1008 10.125 9C10.125 5.89852 12.6492 3.375 15.75 3.375Z" fill="black"/>
</svg>
