<?xml version="1.0" encoding="UTF-8"?>
<svg xmlns="http://www.w3.org/2000/svg" xmlns:xlink="http://www.w3.org/1999/xlink" width="25px" height="25px" viewBox="0 0 25 28" version="1.1">
<g id="surface1">
<path style=" stroke:none;fill-rule:nonzero;fill:rgb(0%,0%,0%);fill-opacity:1;" d="M 14.941406 16.625 L 9.667969 16.625 C 4.328125 16.625 0 20.933594 0 26.25 C 0 27.214844 0.789062 28 1.757812 28 L 22.851562 28 C 23.820312 28 24.609375 27.214844 24.609375 26.25 C 24.609375 20.933594 20.28125 16.625 14.941406 16.625 Z M 2.691406 25.375 C 3.125 21.925781 6.085938 19.25 9.667969 19.25 L 14.941406 19.25 C 18.519531 19.25 21.484375 21.925781 21.917969 25.375 Z M 12.304688 14 C 16.1875 14 19.335938 10.867188 19.335938 7 C 19.335938 3.132812 16.1875 0 12.304688 0 C 8.421875 0 5.273438 3.132812 5.273438 7 C 5.273438 10.867188 8.421875 14 12.304688 14 Z M 12.304688 2.625 C 14.726562 2.625 16.699219 4.585938 16.699219 7 C 16.699219 9.414062 14.726562 11.375 12.304688 11.375 C 9.882812 11.375 7.910156 9.410156 7.910156 7 C 7.910156 4.585938 9.882812 2.625 12.304688 2.625 Z M 12.304688 2.625 "/>
</g>
</svg>
