<svg width="40" height="40" viewBox="0 0 40 40" fill="none" xmlns="http://www.w3.org/2000/svg">
<path d="M4.10507 0.833344C2.30149 0.833344 0.837158 2.29576 0.837158 4.10126V12.3333C0.837737 15.052 1.80111 17.6825 3.55642 19.7585C5.31173 21.8345 7.74555 23.2218 10.4262 23.6743C10.4518 20.6284 11.3883 17.6599 13.1153 15.1508L8.92166 10.9533C8.66774 10.6808 8.5295 10.3204 8.53607 9.94801C8.54264 9.5756 8.69351 9.22028 8.95688 8.9569C9.22026 8.69353 9.57558 8.54266 9.94799 8.53609C10.3204 8.52952 10.6808 8.66776 10.9533 8.92168L14.9668 12.9333C17.2212 10.6952 20.1165 9.21477 23.2507 8.69743C22.4866 6.40739 21.0215 4.41571 19.0629 3.00436C17.1042 1.59301 14.7513 0.833498 12.3372 0.833344H4.10507ZM15.3118 32.2418L10.8383 36.7114C10.701 36.844 10.5914 37.0025 10.516 37.1779C10.4405 37.3532 10.4008 37.5418 10.3991 37.7327C10.3973 37.9236 10.4336 38.1129 10.5058 38.2896C10.578 38.4663 10.6846 38.6268 10.8195 38.7619C10.9545 38.8969 11.1149 39.0037 11.2915 39.0761C11.4682 39.1484 11.6574 39.1849 11.8483 39.1833C12.0392 39.1817 12.2278 39.1422 12.4032 39.0669C12.5787 38.9917 12.7373 38.8822 12.87 38.745L17.3454 34.2734C19.3163 35.8607 21.696 36.8581 24.2096 37.1505C26.7233 37.4429 29.2684 37.0183 31.551 35.9258C33.8336 34.8333 35.7606 33.1174 37.1096 30.9763C38.4585 28.8352 39.1743 26.3563 39.1743 23.8257V13.767C39.1743 12.8774 38.8209 12.0243 38.1919 11.3953C37.5629 10.7662 36.7097 10.4128 35.8202 10.4128H25.7577C23.2272 10.4132 20.7485 11.1293 18.6077 12.4784C16.4669 13.8274 14.7513 15.7545 13.659 18.0371C12.5668 20.3196 12.1424 22.8645 12.4348 25.378C12.7273 27.8915 13.7247 30.271 15.3118 32.2418V32.2418ZM27.245 24.3796L19.3962 32.2283C18.6293 31.6466 17.9451 30.9631 17.3627 30.1967L25.2114 22.346C25.4811 22.0763 25.8468 21.9248 26.2282 21.9248C26.6096 21.9248 26.9753 22.0763 27.245 22.346C27.5147 22.6157 27.6662 22.9814 27.6662 23.3628C27.6662 23.7442 27.5147 24.1099 27.245 24.3796Z" fill="black"/>
</svg>
