<?xml version="1.0" encoding="UTF-8"?>
<svg xmlns="http://www.w3.org/2000/svg" xmlns:xlink="http://www.w3.org/1999/xlink" width="25px" height="25px" viewBox="0 0 25 25" version="1.1">
<g id="surface1">
<path style=" stroke:none;fill-rule:nonzero;fill:rgb(0%,0%,0%);fill-opacity:1;" d="M 2.566406 0.519531 C 1.4375 0.519531 0.523438 1.433594 0.523438 2.5625 L 0.523438 7.707031 C 0.523438 9.40625 1.125 11.050781 2.222656 12.347656 C 3.320312 13.648438 4.839844 14.511719 6.515625 14.796875 C 6.53125 12.894531 7.117188 11.039062 8.195312 9.46875 L 5.574219 6.847656 C 5.417969 6.675781 5.332031 6.449219 5.335938 6.21875 C 5.339844 5.984375 5.433594 5.761719 5.597656 5.597656 C 5.761719 5.433594 5.984375 5.339844 6.21875 5.335938 C 6.449219 5.332031 6.675781 5.417969 6.847656 5.574219 L 9.355469 8.082031 C 10.761719 6.683594 12.574219 5.757812 14.53125 5.4375 C 14.054688 4.003906 13.136719 2.761719 11.914062 1.878906 C 10.691406 0.996094 9.21875 0.519531 7.710938 0.519531 Z M 9.570312 20.152344 L 6.773438 22.945312 C 6.6875 23.027344 6.621094 23.125 6.574219 23.234375 C 6.523438 23.347656 6.5 23.464844 6.5 23.582031 C 6.5 23.703125 6.519531 23.820312 6.566406 23.929688 C 6.609375 24.042969 6.679688 24.140625 6.761719 24.226562 C 6.847656 24.3125 6.945312 24.378906 7.058594 24.421875 C 7.167969 24.46875 7.285156 24.492188 7.40625 24.488281 C 7.523438 24.488281 7.640625 24.464844 7.753906 24.417969 C 7.863281 24.371094 7.960938 24.300781 8.042969 24.214844 L 10.839844 21.421875 C 12.074219 22.414062 13.558594 23.035156 15.132812 23.21875 C 16.703125 23.402344 18.292969 23.136719 19.71875 22.453125 C 21.144531 21.769531 22.351562 20.699219 23.195312 19.359375 C 24.035156 18.023438 24.484375 16.472656 24.484375 14.890625 L 24.484375 8.605469 C 24.484375 8.046875 24.261719 7.515625 23.871094 7.121094 C 23.476562 6.730469 22.945312 6.507812 22.386719 6.507812 L 16.097656 6.507812 C 14.515625 6.507812 12.96875 6.957031 11.628906 7.800781 C 10.292969 8.640625 9.21875 9.847656 8.535156 11.273438 C 7.855469 12.699219 7.589844 14.289062 7.773438 15.859375 C 7.953125 17.433594 8.578125 18.917969 9.570312 20.152344 Z M 17.027344 15.238281 L 12.121094 20.144531 C 11.644531 19.777344 11.214844 19.351562 10.851562 18.871094 L 15.757812 13.964844 C 15.925781 13.796875 16.152344 13.703125 16.394531 13.703125 C 16.632812 13.703125 16.859375 13.796875 17.027344 13.964844 C 17.195312 14.136719 17.292969 14.363281 17.292969 14.601562 C 17.292969 14.839844 17.195312 15.070312 17.027344 15.238281 Z M 17.027344 15.238281 "/>
</g>
</svg>
