<?xml version="1.0" encoding="UTF-8"?>
<svg xmlns="http://www.w3.org/2000/svg" xmlns:xlink="http://www.w3.org/1999/xlink" width="25px" height="25px" viewBox="0 0 25 25" version="1.1">
<g id="surface1">
<path style=" stroke:none;fill-rule:nonzero;fill:rgb(0%,0%,0%);fill-opacity:1;" d="M 11.136719 4.121094 C 9.621094 4.121094 8.148438 4.621094 6.964844 5.539062 C 5.78125 6.460938 4.953125 7.742188 4.617188 9.179688 C 4.765625 9.167969 4.914062 9.164062 5.0625 9.164062 C 5.984375 9.164062 6.898438 9.339844 7.753906 9.683594 C 8.605469 10.027344 9.378906 10.53125 10.03125 11.164062 C 10.683594 11.800781 11.203125 12.554688 11.554688 13.382812 C 11.910156 14.210938 12.089844 15.097656 12.089844 15.996094 C 12.089844 16.355469 12.0625 16.714844 12.003906 17.070312 C 13.613281 16.863281 15.089844 16.097656 16.160156 14.910156 C 17.230469 13.726562 17.824219 12.203125 17.824219 10.625 C 17.824219 9.769531 17.648438 8.925781 17.3125 8.136719 C 16.976562 7.347656 16.484375 6.628906 15.863281 6.027344 C 15.242188 5.421875 14.503906 4.945312 13.695312 4.617188 C 12.882812 4.289062 12.015625 4.121094 11.136719 4.121094 Z M 11.136719 4.121094 "/>
<path style=" stroke:none;fill-rule:nonzero;fill:rgb(0%,0%,0%);fill-opacity:1;" d="M 11.085938 0 C 12.539062 0 13.976562 0.277344 15.316406 0.816406 L 15.347656 0.832031 C 17.871094 1.855469 19.914062 3.753906 21.085938 6.15625 C 22.257812 8.558594 22.476562 11.296875 21.695312 13.847656 C 21.429688 14.714844 21.050781 15.546875 20.570312 16.320312 L 24.859375 20.867188 C 24.957031 20.964844 25.003906 21.097656 25 21.234375 C 24.992188 21.371094 24.933594 21.5 24.832031 21.59375 L 21.679688 24.386719 C 21.578125 24.476562 21.441406 24.523438 21.300781 24.515625 C 21.164062 24.507812 21.035156 24.449219 20.941406 24.351562 L 16.835938 19.960938 C 16.039062 20.433594 15.183594 20.8125 14.289062 21.078125 C 13.777344 21.226562 13.257812 21.34375 12.726562 21.417969 C 12.703125 21.136719 12.632812 20.859375 12.523438 20.601562 C 12.507812 20.550781 12.488281 20.507812 12.46875 20.457031 C 12.316406 20.128906 12.136719 19.808594 11.9375 19.503906 L 11.882812 19.425781 L 11.894531 19.324219 C 12.773438 19.246094 13.636719 19.039062 14.449219 18.710938 C 15.523438 18.277344 16.5 17.644531 17.324219 16.84375 L 17.351562 16.816406 C 18.164062 16.023438 18.804688 15.085938 19.246094 14.054688 L 19.246094 14.03125 C 20.132812 11.925781 20.125 9.566406 19.230469 7.46875 C 18.332031 5.371094 16.617188 3.699219 14.460938 2.828125 L 14.433594 2.8125 C 12.820312 2.171875 11.050781 2.003906 9.339844 2.339844 C 7.632812 2.675781 6.0625 3.492188 4.832031 4.691406 L 4.804688 4.71875 C 3.996094 5.511719 3.351562 6.449219 2.910156 7.484375 L 2.910156 7.507812 C 2.703125 7.996094 2.546875 8.5 2.4375 9.011719 C 1.859375 8.859375 1.308594 8.699219 0.820312 8.519531 C 0.671875 8.449219 0.507812 8.402344 0.34375 8.382812 L 0.277344 8.382812 C 0.417969 7.792969 0.605469 7.214844 0.84375 6.65625 L 0.859375 6.625 C 1.699219 4.664062 3.121094 2.988281 4.941406 1.808594 C 6.761719 0.628906 8.898438 0 11.085938 0 Z M 10.304688 19.789062 C 10.46875 19.84375 11.554688 21.46875 11.1875 21.695312 C 11.152344 21.71875 9.816406 20.28125 9.660156 20.148438 L 9.507812 20.171875 C 3.410156 21.144531 -0.910156 18.347656 0.164062 9.808594 C 4.773438 11.535156 11.40625 11.117188 10.441406 19.140625 C 10.429688 19.363281 10.382812 19.578125 10.304688 19.789062 Z M 8.726562 18.445312 C 7.316406 15.210938 3.441406 13.984375 1.578125 11.738281 C 3.542969 15.804688 4.699219 15.667969 8.726562 18.445312 Z M 8.726562 18.445312 "/>
</g>
</svg>
