<svg width="35" height="36" viewBox="0 0 35 36" fill="none" xmlns="http://www.w3.org/2000/svg">
<path d="M15.5898 5.93579C13.4687 5.93581 11.4105 6.65615 9.75229 7.9788C8.0941 9.30145 6.93424 11.148 6.46268 13.216C6.67086 13.2027 6.87942 13.1959 7.08803 13.1958C8.38018 13.1958 9.65968 13.4502 10.8535 13.9447C12.0473 14.4392 13.132 15.1639 14.0457 16.0776C14.9594 16.9913 15.6841 18.076 16.1786 19.2698C16.6731 20.4636 16.9275 21.7431 16.9275 23.0353C16.9273 23.5524 16.8864 24.0688 16.8051 24.5795C19.0582 24.2846 21.1271 23.1802 22.626 21.4724C24.1249 19.7646 24.9514 17.5698 24.9515 15.2975C24.9515 14.0681 24.7094 12.8507 24.239 11.7149C23.7685 10.5791 23.0789 9.54703 22.2096 8.6777C21.3403 7.80838 20.3082 7.1188 19.1724 6.64834C18.0366 6.17788 16.8192 5.93576 15.5898 5.93579Z" fill="black"/>
<path d="M15.5201 1.06581e-06C17.5526 0.000201764 19.5652 0.399603 21.4438 1.17553L21.484 1.19564C25.0168 2.67277 27.8789 5.40376 29.5199 8.86351C31.1609 12.3233 31.465 16.2675 30.3737 19.9379C30.0027 21.1882 29.4734 22.3859 28.7987 23.5019L34.8056 30.0463C34.9378 30.1917 35.0074 30.3833 34.9994 30.5797C34.9913 30.776 34.9062 30.9613 34.7625 31.0954L30.3536 35.1192C30.208 35.2478 30.0177 35.3142 29.8236 35.304C29.6296 35.2937 29.4473 35.2078 29.316 35.0645L23.5677 28.7414C22.4526 29.4265 21.2551 29.9673 20.0038 30.351C19.2887 30.5681 18.5586 30.7324 17.8195 30.8424C17.7841 30.4373 17.6872 30.0399 17.532 29.664C17.5091 29.5951 17.4861 29.5289 17.4573 29.46C17.2431 28.9839 16.9933 28.5246 16.71 28.0861L16.6353 27.974L16.6526 27.8246C17.8827 27.7124 19.0889 27.4159 20.2309 26.9451C21.7348 26.3195 23.1018 25.4056 24.2547 24.2549L24.2949 24.2175C25.4286 23.0755 26.3287 21.7234 26.9449 20.2368V20.2024C28.1844 17.1736 28.1757 13.7774 26.9205 10.7551C25.6654 7.73269 23.2657 5.32945 20.2452 4.06979L20.2079 4.05254C17.9505 3.12597 15.4694 2.88836 13.0772 3.36966C10.685 3.85096 8.48887 5.02963 6.7655 6.75711L6.72527 6.79448C5.5919 7.93675 4.69183 9.28882 4.07531 10.7752V10.8125C3.7869 11.5126 3.56463 12.2381 3.41138 12.9796C2.60087 12.7583 1.83348 12.5255 1.14943 12.2697C0.939365 12.1653 0.712775 12.0982 0.479754 12.0714H0.390656C0.583234 11.2205 0.848633 10.3878 1.18392 9.58239L1.20116 9.54216C2.37895 6.71546 4.36734 4.30079 6.9156 2.60263C9.46387 0.904476 12.4579 -0.00113406 15.5201 1.06581e-06ZM14.428 28.4943C14.6579 28.5747 16.1783 30.9143 15.6639 31.2419C15.615 31.2736 13.741 29.207 13.5255 29.0116L13.3128 29.049C4.77372 30.4458 -1.27347 26.422 0.229704 14.1264C6.68503 16.6125 15.9685 16.0061 14.6177 27.563C14.6015 27.8812 14.5375 28.1951 14.428 28.4943ZM12.2149 26.5628C10.2403 21.901 4.81684 20.1391 2.20711 16.9057C4.96054 22.7575 6.57868 22.5591 12.2149 26.5628Z" fill="black"/>
</svg>
