<svg width="32" height="40" viewBox="0 0 32 40" fill="none" xmlns="http://www.w3.org/2000/svg">
<path d="M16.9584 16.6458C16.9584 16.2646 17.1098 15.899 17.3794 15.6294C17.649 15.3598 18.0146 15.2083 18.3959 15.2083H25.1042C25.4854 15.2083 25.8511 15.3598 26.1207 15.6294C26.3902 15.899 26.5417 16.2646 26.5417 16.6458C26.5417 17.0271 26.3902 17.3927 26.1207 17.6623C25.8511 17.9319 25.4854 18.0833 25.1042 18.0833H18.3959C18.0146 18.0833 17.649 17.9319 17.3794 17.6623C17.1098 17.3927 16.9584 17.0271 16.9584 16.6458ZM18.3959 25.75C18.0146 25.75 17.649 25.9015 17.3794 26.171C17.1098 26.4406 16.9584 26.8063 16.9584 27.1875C16.9584 27.5688 17.1098 27.9344 17.3794 28.204C17.649 28.4736 18.0146 28.625 18.3959 28.625H25.1042C25.4854 28.625 25.8511 28.4736 26.1207 28.204C26.3902 27.9344 26.5417 27.5688 26.5417 27.1875C26.5417 26.8063 26.3902 26.4406 26.1207 26.171C25.8511 25.9015 25.4854 25.75 25.1042 25.75H18.3959ZM13.6617 15.745C13.8029 15.6134 13.9162 15.4547 13.9948 15.2784C14.0733 15.102 14.1156 14.9117 14.119 14.7187C14.1224 14.5257 14.0869 14.3339 14.0146 14.1549C13.9423 13.976 13.8347 13.8134 13.6982 13.6769C13.5617 13.5404 13.3991 13.4327 13.2201 13.3604C13.0411 13.2881 12.8494 13.2526 12.6564 13.256C12.4633 13.2594 12.273 13.3017 12.0967 13.3803C11.9203 13.4588 11.7616 13.5721 11.63 13.7133L8.81252 16.5308L7.91169 15.63C7.63919 15.3761 7.27876 15.2379 6.90635 15.2444C6.53394 15.251 6.17862 15.4019 5.91525 15.6652C5.65187 15.9286 5.50101 16.2839 5.49443 16.6563C5.48786 17.0288 5.6261 17.3892 5.88002 17.6617L7.79669 19.5783C8.06622 19.8475 8.43158 19.9987 8.81252 19.9987C9.19346 19.9987 9.55882 19.8475 9.82835 19.5783L13.6617 15.745ZM13.6617 24.255C13.9309 24.5245 14.0821 24.8899 14.0821 25.2708C14.0821 25.6518 13.9309 26.0171 13.6617 26.2867L9.82835 30.12C9.55882 30.3892 9.19346 30.5404 8.81252 30.5404C8.43158 30.5404 8.06622 30.3892 7.79669 30.12L5.88002 28.2033C5.73879 28.0717 5.62551 27.913 5.54694 27.7367C5.46837 27.5604 5.42613 27.37 5.42272 27.177C5.41931 26.984 5.45482 26.7923 5.52712 26.6133C5.59942 26.4343 5.70703 26.2717 5.84353 26.1352C5.98003 25.9987 6.14263 25.8911 6.32162 25.8188C6.50062 25.7465 6.69234 25.711 6.88535 25.7144C7.07837 25.7178 7.26872 25.76 7.44505 25.8386C7.62138 25.9172 7.78009 26.0304 7.91169 26.1717L8.81252 27.0725L11.63 24.255C11.8996 23.9858 12.2649 23.8346 12.6459 23.8346C13.0268 23.8346 13.3922 23.9858 13.6617 24.255ZM23.6552 4.82768C23.5749 3.74193 23.0869 2.72674 22.2891 1.98587C21.4914 1.245 20.4429 0.83328 19.3542 0.833344H12.6459C11.5851 0.833376 10.5616 1.22436 9.77094 1.93154C8.98031 2.63872 8.47805 3.61249 8.36019 4.66668H4.97919C3.83544 4.66668 2.73854 5.12103 1.92979 5.92978C1.12104 6.73853 0.666687 7.83543 0.666687 8.97918V34.8542C0.666687 35.9979 1.12104 37.0948 1.92979 37.9036C2.73854 38.7123 3.83544 39.1667 4.97919 39.1667H27.0209C27.5872 39.1667 28.148 39.0551 28.6712 38.8384C29.1944 38.6217 29.6698 38.304 30.0703 37.9036C30.4707 37.5031 30.7884 37.0277 31.0051 36.5045C31.2218 35.9813 31.3334 35.4205 31.3334 34.8542V8.97918C31.3334 8.41285 31.2218 7.85207 31.0051 7.32885C30.7884 6.80564 30.4707 6.33023 30.0703 5.92978C29.6698 5.52933 29.1944 5.21167 28.6712 4.99495C28.148 4.77822 27.5872 4.66668 27.0209 4.66668H23.6399L23.6552 4.82768ZM23.6552 4.85068L23.6667 5.14584C23.6667 5.04618 23.6629 4.94843 23.6571 4.85068H23.6552ZM12.6459 9.45834H19.3542C20.8492 9.45834 22.1659 8.69743 22.9403 7.54168H27.0209C27.4021 7.54168 27.7677 7.69313 28.0373 7.96271C28.3069 8.23229 28.4584 8.59793 28.4584 8.97918V34.8542C28.4584 35.2354 28.3069 35.6011 28.0373 35.8706C27.7677 36.1402 27.4021 36.2917 27.0209 36.2917H4.97919C4.59794 36.2917 4.2323 36.1402 3.96272 35.8706C3.69314 35.6011 3.54169 35.2354 3.54169 34.8542V8.97918C3.54169 8.59793 3.69314 8.23229 3.96272 7.96271C4.2323 7.69313 4.59794 7.54168 4.97919 7.54168H9.05977C9.8341 8.69743 11.1509 9.45834 12.6459 9.45834ZM12.6459 3.70834H19.3542C19.7354 3.70834 20.1011 3.85979 20.3707 4.12938C20.6402 4.39896 20.7917 4.76459 20.7917 5.14584C20.7917 5.52709 20.6402 5.89273 20.3707 6.16231C20.1011 6.43189 19.7354 6.58334 19.3542 6.58334H12.6459C12.2646 6.58334 11.899 6.43189 11.6294 6.16231C11.3598 5.89273 11.2084 5.52709 11.2084 5.14584C11.2084 4.76459 11.3598 4.39896 11.6294 4.12938C11.899 3.85979 12.2646 3.70834 12.6459 3.70834Z" fill="black"/>
</svg>
