<svg width="32" height="34" viewBox="0 0 32 34" fill="none" xmlns="http://www.w3.org/2000/svg">
<path d="M16.0217 0.75C17.245 0.763333 18.4633 0.905 19.6567 1.17167C19.9109 1.22842 20.1411 1.36317 20.315 1.5571C20.4889 1.75103 20.5979 1.99445 20.6267 2.25333L20.91 4.79833C20.9499 5.15736 21.0736 5.50199 21.2711 5.80446C21.4686 6.10693 21.7343 6.3588 22.047 6.53977C22.3596 6.72073 22.7104 6.82574 23.071 6.84634C23.4317 6.86693 23.7921 6.80253 24.1233 6.65833L26.4567 5.63333C26.6938 5.52892 26.9574 5.50074 27.2112 5.55269C27.465 5.60464 27.6964 5.73416 27.8733 5.92333C29.5599 7.72518 30.8158 9.88604 31.5467 12.2433C31.6233 12.4911 31.621 12.7565 31.5401 13.0028C31.4592 13.2492 31.3036 13.4643 31.095 13.6183L29.025 15.145C28.7337 15.3587 28.4968 15.6381 28.3336 15.9605C28.1704 16.2828 28.0854 16.6391 28.0856 17.0004C28.0858 17.3617 28.1711 17.7179 28.3346 18.0401C28.4981 18.3624 28.7352 18.6415 29.0267 18.855L31.0983 20.38C31.3073 20.5341 31.463 20.7495 31.544 20.9962C31.6249 21.2429 31.627 21.5087 31.55 21.7567C30.8194 24.1137 29.564 26.2745 27.8783 28.0767C27.7017 28.2658 27.4707 28.3954 27.2172 28.4476C26.9638 28.4999 26.7004 28.4722 26.4633 28.3683L24.12 27.34C23.7892 27.1947 23.4289 27.1293 23.0682 27.1492C22.7074 27.1691 22.3565 27.2737 22.0437 27.4545C21.7309 27.6353 21.4651 27.8873 21.2679 28.1899C21.0706 28.4926 20.9475 28.8375 20.9083 29.1967L20.6267 31.74C20.5983 31.9961 20.4914 32.2371 20.3208 32.4301C20.1501 32.6232 19.924 32.7588 19.6733 32.8183C17.2598 33.3924 14.7452 33.3924 12.3317 32.8183C12.081 32.7588 11.8549 32.6232 11.6842 32.4301C11.5136 32.2371 11.4067 31.9961 11.3783 31.74L11.095 29.2C11.054 28.8424 10.9298 28.4994 10.7323 28.1985C10.5348 27.8975 10.2695 27.6471 9.95769 27.4672C9.64591 27.2874 9.29632 27.1831 8.93695 27.1627C8.57758 27.1423 8.21844 27.2065 7.88834 27.35L5.54334 28.3767C5.30631 28.4805 5.04289 28.5082 4.78944 28.456C4.53599 28.4037 4.305 28.2741 4.12834 28.085C2.44179 26.2809 1.18641 24.1177 0.456676 21.7583C0.379661 21.5104 0.381771 21.2446 0.462711 20.9979C0.543651 20.7512 0.699405 20.5358 0.908343 20.3817L2.98168 18.855C3.27309 18.6414 3.51007 18.3621 3.67343 18.0398C3.83678 17.7176 3.92191 17.3613 3.92191 17C3.92191 16.6387 3.83678 16.2824 3.67343 15.9602C3.51007 15.6379 3.27309 15.3586 2.98168 15.145L0.91001 13.6217C0.700777 13.4677 0.544691 13.2525 0.463447 13.0057C0.382203 12.759 0.379837 12.4931 0.456676 12.245C1.18804 9.88755 2.44456 7.72668 4.13168 5.925C4.30853 5.73617 4.53961 5.60687 4.79305 5.55493C5.04649 5.50299 5.30981 5.53097 5.54668 5.635L7.88001 6.66C8.21171 6.80378 8.57251 6.86777 8.93342 6.84681C9.29434 6.82585 9.6453 6.72054 9.95813 6.53932C10.271 6.35811 10.5369 6.10605 10.7347 5.8034C10.9324 5.50075 11.0564 5.15594 11.0967 4.79667L11.38 2.25333C11.4086 1.99392 11.5177 1.74997 11.6919 1.55569C11.8662 1.36141 12.0969 1.22654 12.3517 1.17C13.5483 0.905 14.7683 0.765 16.0217 0.75ZM16.0217 3.25C15.2651 3.25879 14.5102 3.32397 13.7633 3.445L13.5817 5.07333C13.4985 5.8226 13.2403 6.54183 12.828 7.17298C12.4157 7.80413 11.8609 8.32954 11.2082 8.70681C10.5555 9.08408 9.82328 9.30266 9.07059 9.3449C8.31789 9.38714 7.56581 9.25187 6.87501 8.95L5.37834 8.29333C4.42499 9.4502 3.66619 10.7545 3.13168 12.155L4.46168 13.1333C5.0687 13.5794 5.56225 14.1621 5.90242 14.8343C6.24258 15.5064 6.41983 16.2492 6.41983 17.0025C6.41983 17.7558 6.24258 18.4986 5.90242 19.1707C5.56225 19.8429 5.0687 20.4256 4.46168 20.8717L3.13168 21.8517C3.66501 23.255 4.42334 24.5617 5.37668 25.7217L6.88668 25.06C7.57583 24.7591 8.326 24.6242 9.0768 24.6662C9.8276 24.7082 10.5581 24.9259 11.2094 25.3017C11.8607 25.6775 12.4147 26.201 12.8267 26.8301C13.2387 27.4591 13.4973 28.1761 13.5817 28.9233L13.7617 30.5633C15.245 30.8133 16.76 30.8133 18.2433 30.5633L18.4233 28.9233C18.5058 28.1745 18.7633 27.4557 19.1751 26.8249C19.5869 26.1941 20.1414 25.6691 20.7937 25.2923C21.446 24.9155 22.1778 24.6975 22.93 24.656C23.6822 24.6145 24.4335 24.7506 25.1233 25.0533L26.63 25.7133C27.5828 24.5557 28.341 23.2509 28.875 21.85L27.545 20.87C26.9377 20.4241 26.4438 19.8415 26.1035 19.1693C25.7631 18.4971 25.5857 17.7543 25.5857 17.0008C25.5857 16.2474 25.7631 15.5045 26.1035 14.8323C26.4438 14.1602 26.9377 13.5776 27.545 13.1317L28.8717 12.1533C28.3372 10.7528 27.5784 9.44854 26.625 8.29167L25.1317 8.94667C24.4413 9.24891 23.6894 9.38457 22.9369 9.34269C22.1844 9.30081 21.4523 9.08255 20.7997 8.70556C20.1471 8.32856 19.5923 7.80338 19.18 7.17242C18.7678 6.54147 18.5098 5.82242 18.4267 5.07333L18.2433 3.44667C17.5087 3.32657 16.766 3.26139 16.0217 3.25167V3.25ZM16 10.75C17.6576 10.75 19.2473 11.4085 20.4194 12.5806C21.5915 13.7527 22.25 15.3424 22.25 17C22.25 18.6576 21.5915 20.2473 20.4194 21.4194C19.2473 22.5915 17.6576 23.25 16 23.25C14.3424 23.25 12.7527 22.5915 11.5806 21.4194C10.4085 20.2473 9.75001 18.6576 9.75001 17C9.75001 15.3424 10.4085 13.7527 11.5806 12.5806C12.7527 11.4085 14.3424 10.75 16 10.75ZM16 13.25C15.0054 13.25 14.0516 13.6451 13.3484 14.3483C12.6451 15.0516 12.25 16.0054 12.25 17C12.25 17.9946 12.6451 18.9484 13.3484 19.6516C14.0516 20.3549 15.0054 20.75 16 20.75C16.9946 20.75 17.9484 20.3549 18.6517 19.6516C19.3549 18.9484 19.75 17.9946 19.75 17C19.75 16.0054 19.3549 15.0516 18.6517 14.3483C17.9484 13.6451 16.9946 13.25 16 13.25Z" fill="black"/>
</svg>
